<svg xmlns="http://www.w3.org/2000/svg" viewBox="0 0 199 233" width="199" height="233">
	<style>
		tspan { white-space:pre }
		.shp0 { fill: #ffffff } 
	</style>
	<g id="Layer">
		<path id="Layer" fill-rule="evenodd" class="shp0" d="M38.4 210.3C55.2 223.7 76.5 231.7 99.7 231.7C122.9 231.7 144.2 223.7 161 210.3L162.1 210.3C145.1 224.1 123.3 232.4 99.7 232.4C76.1 232.4 54.3 224.1 37.3 210.3L38.4 210.3ZM54.6 210.3L51.6 215.7L52.4 216.1C54.3 217.2 55.9 216.1 56.7 214.7C57.4 213.5 57.6 211.5 55.5 210.4L55.2 210.2L57.3 210.2C58 210.8 58.2 211.4 58.3 211.7C58.5 212.1 59.1 213.8 58 215.6C57.2 217 55.7 217.6 55.3 217.6C54.1 217.8 53.2 217.9 51.5 216.9L48.8 215.4L49.4 214.4L50.2 214.9L52.8 210.2L54.6 210.2L54.6 210.3ZM62.9 210.3C74 215.6 86.5 218.6 99.7 218.6C112.9 218.6 125.3 215.6 136.5 210.3L138.1 210.3C126.6 216 113.5 219.3 99.8 219.3C86 219.3 73 216.1 61.5 210.3L62.9 210.3ZM85 210.3C87.3 210.7 89.6 211.1 92 211.3C92 211.2 92 211.2 92 211.1C92 210.9 92 210.8 92 210.6C91.1 210.5 90.3 210.4 89.4 210.3L92.7 210.3C92.6 210.5 92.6 210.8 92.6 211.1C92.6 213.1 94.5 214.6 96.6 214.5C98.2 214.5 99 213.7 100.1 212.8C100 212.6 99.8 212.4 99.7 212.2C98.8 213 98 213.8 96.6 213.8C94.8 213.8 93.3 212.5 93.3 211.1C93.3 210.8 93.3 210.6 93.4 210.3L98.7 210.3C97.7 210.8 96.3 211.1 94.1 210.9C94.1 211.1 94.1 211.4 94.2 211.6C97.3 211.9 98.9 211.2 100 210.3L101.1 210.3L101.1 210.4C101.2 210.4 101.2 210.3 101.3 210.3L103.9 210.3C102.9 210.4 102.1 210.7 101.5 211C101.6 211.2 101.7 211.4 101.9 211.6C103.1 211 104.7 210.8 107.4 211.2C107.6 211.3 107.8 211.3 108.2 211.3C110.3 211.1 112.4 210.7 114.5 210.3L117.8 210.3C114.7 211 111.6 211.6 108.4 211.9L108.3 211.9C107.8 213.8 105.9 215 103.9 215.1C102.3 215.1 101.3 214.4 100.5 213.4C99.3 214.4 98.4 215.2 96.6 215.3C94.5 215.3 92.5 214.1 92 212.1C88.4 211.8 84.9 211.2 81.5 210.4L85 210.3ZM110.1 210.3C109.6 210.4 109.1 210.4 108.6 210.5C108.3 210.6 107.9 210.5 107.6 210.5C107.2 210.4 106.8 210.4 106.5 210.4L110.1 210.3ZM147.5 212.4L149.2 211.3L148 210.3L150.3 210.3L152.9 212.4L153.5 212L154.1 213L151.3 214.7L150.7 213.7L151.5 213.2L150.1 212.1L147.8 213.5L148.2 215.3L149 214.8L149.6 215.8L146.9 217.5L146.3 216.5L146.9 216.1L145.5 210.3L147 210.3L147.5 212.4ZM157.8 210.3L157.4 210.6L157.2 210.3L157.8 210.3ZM100 211.2C100.9 212.7 101.9 214.4 103.9 214.4C105.6 214.4 107.1 213.3 107.6 211.9L107.3 211.9L106.9 211.8C106.5 212.9 105.3 213.7 103.9 213.7C102.2 213.7 101.3 212.1 100.5 210.8C100.4 210.9 100.2 211.1 100 211.2ZM106.2 211.7C104.4 211.5 103.2 211.8 102.3 212.2C102.7 212.7 103.3 213 103.9 213C105 212.9 105.8 212.4 106.2 211.7ZM99.4 211.6C98.3 212.1 96.8 212.5 94.6 212.4C95 212.9 95.7 213.2 96.6 213.1C97.8 213.1 98.6 212.3 99.4 211.6ZM63.1 222.7L59.8 221.4L60.2 220.3L61.1 220.7L63.5 214.7L62.6 214.3L63 213.2L66.5 214.6C67.1 214.8 68.3 215.2 68.7 216.6C68.9 217.2 68.7 217.7 68.6 217.9C68.2 218.9 67.6 219.2 66.6 219.2C67.4 219.8 67.3 220.4 67.1 220.9L66.4 222.7L67.2 223L66.8 224.1L64.5 223.2L65.7 220.3C66 219.5 65.2 219.1 64.6 218.9L63.7 218.5L62.6 221.1L63.5 221.5L63.1 222.7ZM65 215.2L64.1 217.4L65.1 217.8C65.9 218.1 66.8 218.3 67.2 217.2C67.6 216.2 66.6 215.8 65.8 215.5L65 215.2ZM75.4 227C72.3 226.2 71.5 223.5 72 221.4C72.6 218.9 75 217.4 77.6 218C80.2 218.6 81.6 221.1 81 223.6C80.4 226.2 77.8 227.6 75.4 227ZM77.3 219.5C75.4 219 73.9 220.2 73.5 222C73.1 223.6 74.1 225.2 75.7 225.6C77.5 226 79.1 225 79.5 223.3C79.9 221.5 79 219.9 77.3 219.5ZM87.7 229.1L84.3 228.6L84.5 227.4L85.4 227.5L86.3 221.1L85.4 221L85.6 219.8L89 220.3L88.8 221.5L87.9 221.4L87 227.8L87.9 227.9L87.7 229.1ZM93.7 223.3L92.3 223.3L92.4 220.8L99 221L98.9 223.5L97.5 223.5L97.5 222.2L96.4 222.2L96.2 228.6L97.3 228.6L97.3 229.8L93.6 229.7L93.6 228.5L94.7 228.5L94.9 222.1L93.8 222.1L93.7 223.3ZM113.1 228.8L109.7 229.3L109.5 228.1L110.4 228L109.5 221.6L108.6 221.7L108.4 220.5L111.8 220L112 221.2L111.1 221.3L111.4 223.5L114.5 223.1L114.2 220.9L113.3 221L113.1 219.8L116.5 219.3L116.7 220.5L115.8 220.6L116.7 227L117.6 226.9L117.8 228.1L114.4 228.6L114.2 227.4L115.1 227.3L114.7 224.5L111.6 224.9L112 227.7L112.9 227.6L113.1 228.8ZM120.1 219.8L119.8 218.6L123.1 217.7L123.4 218.9L122.5 219.1L123.5 223C123.8 224 124 225.3 125.7 224.8C127.3 224.4 126.8 223.2 126.5 222.1L125.5 218.2L124.6 218.4L124.3 217.2L127.6 216.3L127.9 217.5L127 218L128.2 222.5C128.8 224.7 127.4 226 126.1 226.3C124.4 226.8 122.7 226.1 122.2 224.3L120.9 219.6L120.1 219.8ZM137.7 220.8L133.3 216.2L135.7 221.6L136.6 221.2L137.1 222.3L134 223.7L133.5 222.6L134.3 222.2L131.7 216.3L130.9 216.7L130.4 215.6L133.5 214.2L137.1 218.1L136.7 212.7L139.6 211.4L140.1 212.5L139.3 212.9L141.9 218.8L142.7 218.4L143.2 219.5L140.2 220.9L139.7 219.8L140.6 219.4L138.2 214.1L138.6 220.5L137.7 220.8Z" />
		<path id="Layer" fill-rule="evenodd" class="shp0" d="M38.4 210.3L37.3 210.3C27.9 202.6 19.8 193.3 13.7 182.7L14.5 182.7C20.7 193.3 28.8 202.7 38.4 210.3ZM62.9 210.3L61.3 210.3C48.4 203.9 37.4 194.4 29.2 182.7L30.1 182.7C38.5 194.5 49.8 204 62.9 210.3ZM37.6 182.7C37.2 184 37.6 185.5 38.7 186.6C39.8 187.8 40.9 187.8 42.3 188C42.4 187.8 42.4 187.6 42.5 187.3C41.3 187.2 40.2 187.1 39.2 186.1C38.2 185.1 38 183.7 38.4 182.7L39.2 182.7C39.2 182.7 39.2 182.8 39.1 182.8C41 185.4 42.7 186 44.1 186.2C45.6 186.4 47 186.2 48.2 187.4C49.1 188.4 49.4 189.6 49.1 190.6C49.3 190.8 49.4 191 49.6 191.3C50.3 189.9 49.9 188.1 48.7 186.9C46.2 184.4 43.6 187.3 39.9 182.7L40.8 182.7C41.7 183.7 42.5 184.2 43.2 184.5C43.3 183.8 43.2 183.2 42.7 182.7L43.6 182.7C44 183.3 44 184 43.9 184.7C44.1 184.7 44.3 184.8 44.4 184.8L44.6 184.8C44.7 184 44.7 183.3 44.4 182.6L45.2 182.6C45.4 183.3 45.4 184.1 45.3 184.8C46.8 185 48 185 49.3 186.3C50.7 187.8 51.2 190.1 50.1 191.8C61.7 201.7 76.2 208.2 92.2 209.8C92.7 208 94.6 206.7 96.6 206.7C98.2 206.7 99.2 207.5 100 208.5C101.1 207.5 102 206.6 103.8 206.6C105.9 206.6 107.8 207.8 108.4 209.7C123.9 208 138 201.6 149.2 192C148.3 190.3 148.7 188.1 150 186.7C151.1 185.6 152.4 185.4 153.6 185.5C153.7 184.4 153.7 183.5 154.1 182.6L154.9 182.6C153.5 185 155.8 187.5 151.3 191.3C151.5 191.5 151.7 191.6 151.9 191.7C154.4 189.6 154.9 187.9 155 186.5C155.1 185.1 154.9 183.7 155.8 182.6L156.8 182.6C156.7 182.7 156.6 182.8 156.5 182.9C155.7 183.7 155.8 184.7 155.7 185.9L155.8 185.9C156.1 184.9 156.7 183.8 157.8 182.6L158.8 182.6C157.4 183.9 156.8 185 156.5 186.1C156.7 186.2 157 186.2 157.2 186.2C157.6 185.1 158.3 184 159.9 182.6L161 182.6L160.9 182.7C161.4 183.7 161.2 185.1 160.2 186.2C159.1 187.4 157.2 187 155.8 186.6C155.8 186.8 155.8 187.1 155.7 187.3C157.4 187.7 159.3 188.2 160.7 186.7C161.8 185.5 162.1 183.9 161.6 182.6L162.4 182.6C162.8 184.1 162.4 185.9 161.2 187.1C160.1 188.2 158.9 188.4 157.6 188.3C157.5 189.9 157.5 191.1 156.3 192.4C154.9 193.9 152.5 194.5 150.8 193.5C141.5 201.5 130.2 207.3 117.9 210.2L114.6 210.2C128 207.6 140.2 201.6 150.2 193.1C150.1 193.1 150.1 193 150 193C149.9 192.9 149.8 192.8 149.7 192.6C138.7 201.9 125.1 208.2 110.1 210.2L106.4 210.2C105.5 210.1 104.7 210.1 104 210.2L101.4 210.2C102.5 209.7 103.9 209.4 105.9 209.5C105.4 209 104.7 208.7 103.9 208.7C102.8 208.7 102.1 209.4 101.2 210.2L100.1 210.2C100.1 210.2 100.1 210.2 100.2 210.1C101.4 209.2 102.2 208 103.9 207.9C105.2 207.9 106.3 208.5 106.9 209.5C107.2 209.5 107.4 209.6 107.7 209.6C107.2 208.2 105.6 207.2 103.9 207.2C101.5 207.2 100.9 209.1 98.9 210.1L97.37 210.1C97.69 210.02 97.96 209.92 98.2 209.8C97.7 209.2 97.2 208.9 96.6 208.9C95.46 208.9 94.68 209.44 94.35 210.1L93.6 210.1C94 208.9 95.2 208 96.7 208C97.7 208 98.4 208.5 99 209.2C99.2 209.1 99.3 209 99.4 208.9L99.5 208.8C98.8 207.9 97.9 207.3 96.6 207.3C94.8 207.3 93.2 208.5 92.8 210.1L89.5 210.1C74.4 208.1 60.8 201.7 49.7 192.3C49.4 192.1 49.2 191.8 49 191.5C47.3 189 45.8 188 44.5 187.5C44.4 187.7 44.4 188 44.3 188.2C45.5 188.7 46.9 189.7 48.4 192C48.5 192.2 48.7 192.4 48.9 192.7C59 201.4 71.4 207.5 85 210.1L81.6 210.1C69.1 207.2 57.8 201.3 48.4 193.2C46.7 194.1 44.5 193.6 43.1 192.1C42 191 41.9 189.7 42.1 188.4C40.5 188.2 39.4 188.1 38.1 186.8C37 185.6 36.4 183.9 36.8 182.4L37.6 182.7ZM65.7 182.7L62.7 186.6C74.88 186.6 77.17 186.6 77.6 186.6L73.4 195.6L64.6 195.6C62.6 194.4 60.6 193.2 58.7 191.8L62.7 186.6L52.3 186.6C51.5 185.9 50.8 185.2 50.1 184.5L52.1 182.7L65.7 182.7ZM79.5 182.7L93.3 182.7L92.7 186.6C104.88 186.6 107.17 186.6 107.6 186.6L109.1 195.6L91.4 195.6L90.1 204.4C83.7 203.5 77.6 201.8 71.9 199.3L73.6 195.6C91.3 195.6 91.3 195.6 91.3 195.6L92.6 186.6L77.7 186.6L79.5 182.7ZM107 182.7L120.8 182.7L122.7 186.6C137.7 186.6 137.7 186.6 137.7 186.6L134.6 182.7L148.4 182.7L150.2 184.3C149.4 185.1 148.6 185.8 147.8 186.6L137.7 186.6L141.7 191.6C139.7 193 137.6 194.4 135.5 195.6L127 195.6L128.7 199C123 201.5 117 203.3 110.7 204.3L109.2 195.6C127 195.6 127 195.6 127 195.6L122.6 186.6L107.7 186.6L107 182.7ZM138 210.3L136.4 210.3C149.6 204 160.9 194.5 169.3 182.7L170.1 182.7C161.9 194.4 150.8 203.9 138 210.3ZM185.7 182.7C179.6 193.3 171.6 202.6 162.1 210.3L161 210.3C170.6 202.7 178.7 193.3 184.9 182.7L185.7 182.7ZM52.8 210.3L53.3 209.3L52.5 208.8L53.1 207.8L55.9 209.3C56.5 209.6 56.9 210 57.3 210.3L55.2 210.3L54.8 210.1L54.7 210.3L52.8 210.3ZM145.4 209.5L144.6 210L144 209L147.9 206.6L148.5 207.6L147.7 208.1L150.4 210.3L148.1 210.3L146.9 209.3L147.1 210.3L145.6 210.3L145.4 209.5ZM156.7 209.6L157.4 209L153.5 203.9L152.8 204.5L152.1 203.5L154.8 201.4L155.5 202.4L154.8 202.9L158.7 208L159.4 207.5L160.1 208.5L157.7 210.3L157.2 210.3L156.7 209.6ZM43.3 186.8C42.8 188.5 42.2 190.4 43.6 191.8C44.8 193 46.6 193.4 48 192.8L47.8 192.6L47.6 192.3C46.5 192.7 45.2 192.4 44.2 191.4C43 190.2 43.6 188.4 44 187C43.8 186.9 43.6 186.8 43.3 186.8ZM48.5 189.9C48.5 189.2 48.3 188.5 47.7 187.9C46.9 187.1 45.9 187.1 44.7 187C45.9 187.4 47.1 188.2 48.5 189.9ZM47.2 191.6C46.1 190.2 45.1 189.5 44.2 189.1C44.1 189.7 44.2 190.4 44.7 190.8C45.4 191.6 46.4 191.8 47.2 191.6ZM42.6 186.6C41.5 186.2 40.2 185.4 38.8 183.6C38.8 184.2 39 184.9 39.6 185.6C40.5 186.5 41.6 186.5 42.6 186.6ZM94.35 210.1L97.37 210.1C96.62 210.28 95.63 210.34 94.3 210.2C94.31 210.17 94.33 210.13 94.35 210.1ZM160.3 183.3C158.9 184.5 158.3 185.5 158 186.4C158.6 186.4 159.3 186.3 159.7 185.8C160.4 185 160.5 184 160.3 183.3ZM156.9 188.4C156.7 188.4 156.4 188.3 156.2 188.3C156.1 189.5 156.1 190.7 155.2 191.6C153.9 192.9 152 193.1 150.9 192.1C149.8 191.1 149.8 189.2 151.1 187.8C151.8 187.1 152.7 186.9 153.6 187C153.6 186.8 153.7 186.6 153.7 186.5L153.7 186.3C152.6 186.2 151.5 186.4 150.6 187.3C149.1 188.9 149 191.2 150.5 192.6C151.9 193.9 154.3 193.6 155.8 192.1C156.8 190.9 156.8 189.8 156.9 188.4ZM155.5 188.1C155.1 189.3 154.4 190.6 152.7 192.1C153.3 192.1 154 191.8 154.6 191.2C155.5 190.2 155.4 189.1 155.5 188.1ZM153.4 187.6C152.7 187.6 152.1 187.7 151.6 188.2C150.8 189.1 150.7 190 150.9 190.8C152.4 189.6 153 188.5 153.4 187.6ZM167.8 201.6L160.5 199.3L164.3 203.3L165 202.6L165.8 203.5L163.4 205.8L162.6 204.9L163.2 204.3L158.7 199.7L158.1 200.3L157.3 199.4L159.4 197.4L165.2 199.4L162.3 196.3L161.6 196.9L160.8 196L163.2 193.7L164 194.6L163.3 195.2L168.6 200.7L167.8 201.6ZM31.5 201.9L27.3 197.4L28.2 196.6L28.9 197.3L33.6 192.9L32.9 192.2L33.8 191.4L36.3 194.1L35.4 194.9L34.7 194.1L30 198.5L31.4 200L32.4 199L33.4 200L31.5 201.9ZM39.8 209.2L34.6 204.8L35.4 203.9L36.1 204.5L40.2 199.6L39.5 199L40.3 198.1L45.5 202.5L44 204.3L42.9 203.4L43.6 202.5L41.4 200.7L40 202.4L41.9 204L41 205L39.1 203.4L37.3 205.6L39.5 207.4L40.4 206.3L41.5 207.2L39.8 209.2Z" />
		<path id="Layer" fill-rule="evenodd" class="shp0" d="M5.9 163.4C8.1 170.2 11 176.7 14.5 182.7L13.7 182.7C10.2 176.6 7.3 170.2 5.2 163.4L5.9 163.4ZM10.1 163.4L10.2 163.8L11.5 163.4L15.8 163.4L15.9 163.9L15.1 164.2L14.9 163.6L10.5 165L10.7 165.6L9.9 165.9L9.1 163.5L10.1 163.5L10.1 163.4ZM19.8 163.4C22.4 170.3 25.9 176.8 30.1 182.7L29.3 182.7C25.1 176.8 21.7 170.3 19.1 163.4L19.8 163.4ZM27.6 163.4C30.2 169.7 33.6 175.6 37.7 181C37.8 180.9 37.8 180.9 37.9 180.8C38 180.7 38.1 180.6 38.3 180.5C34.3 175.3 31 169.5 28.4 163.4L29.2 163.4C31.7 169.4 35 175 38.9 180.2C40.6 179.3 42.8 179.9 44.2 181.3C44.6 181.8 44.9 182.3 45.1 182.8L44.3 182.8C44.2 182.5 43.9 182.1 43.7 181.8C42.2 180.3 39.8 180 38.4 181.4C38 181.8 37.7 182.3 37.6 182.8L36.9 182.8C37 182.4 37.1 182 37.4 181.7C33.2 176.2 29.6 170.1 27 163.5L27.6 163.4ZM47.9 164.7L58.1 164.7L58.1 163.4L58.8 163.4L58.8 165.4L58.2 165.4L58.2 166.2L58.6 166.2C59.6 166.2 60.4 167 60.4 168C60.4 168.4 60.3 168.8 60 169.1L61.6 169.1L61.6 170.6L67.4 170.6L67.4 168.1L70.8 168.1L70.8 165.6L74.3 165.6L74.3 163.4L125 163.4L125 165.6L128.5 165.6L128.5 168.1L132 168.1L132 170.6L137.8 170.6L137.8 169L139.4 169C139.2 168.7 139 168.3 139 167.9C139 166.9 139.8 166.1 140.8 166.1L141.2 166.1L141.2 165.3L140.6 165.3L140.6 163.3L141.3 163.3L141.3 164.6L151.5 164.6L151.5 163.3L152.2 163.3L152.2 165.3L151.6 165.3L151.6 166.1L152 166.1C153 166.1 153.8 166.9 153.8 167.9C153.8 168.3 153.7 168.7 153.4 169L155 169L155 170.5L160.1 170.5L160.1 171.2L155.5 171.2L158.9 173.1C158.5 173.7 158 174.4 157.6 175L151.06 175L145.6 171.2L135.5 171.2L139.8 175.1L151.04 175.1L155.3 178.1C154.8 178.7 154.3 179.4 153.8 180L145.19 180L139.8 175.1L128.5 175.1L125.3 171.2L115.2 171.2L117.1 175.1C126.15 175.1 128.02 175.1 128.4 175.1L132.4 180.1L145.21 180.1L148 182.6L134.2 182.6L132.1 180C122.15 180 119.87 180 119.35 180L117.1 175.1L105.8 175.1L105.1 171.2L95 171.2L94.4 175.1L105.7 175.1L106.48 180L93.7 180L93.3 182.6L79.5 182.6L80.7 180L67.88 180L71.7 175.1L60.3 175.1L54.9 180.1C65.46 180.1 67.38 180.1 67.72 180.1L65.8 182.6L52 182.6L54.9 180L46 180C45.5 179.4 45 178.8 44.5 178.2L48.9 175.1L42.1 175.1C41.7 174.5 41.2 173.8 40.8 173.2L44.2 171.2L39.1 171.2L39.1 170.5L44.2 170.5L44.2 169L45.8 169C45.6 168.7 45.4 168.3 45.4 167.9C45.4 166.9 46.2 166.1 47.2 166.1L47.6 166.1L47.6 165.3L47 165.3L47 163.3L47.9 163.3L47.9 164.7ZM151.06 175L151.2 175.1L151.04 175.1L150.9 175L151.06 175ZM119.35 180L119.4 180.1C119.4 180.1 119.4 180.1 119.25 180.1L119.2 180C119.2 180 119.2 180 119.35 180ZM120.5 182.6L107 182.6L106.62 180.1C116.49 180.1 118.74 180.1 119.25 180.1L120.5 182.6ZM106.62 180.1C106.58 180.1 106.54 180.1 106.5 180.1L106.48 180L106.6 180L106.62 180.1ZM145.19 180L145.3 180.1L145.21 180.1L145.1 180L145.19 180ZM67.88 180L67.8 180.1C67.8 180.1 67.8 180.1 67.72 180.1L67.8 180L67.88 180ZM171.1 163.4C168.5 169.6 165.1 175.5 161.1 180.7C160.9 181 160.7 181.2 160.3 181.4C159.7 181.8 159.3 182.2 158.8 182.6L157.8 182.6C158 182.4 158.2 182.2 158.5 181.9C157.9 181.9 157.3 182.1 156.8 182.6L155.8 182.6C155.9 182.5 155.9 182.4 156 182.4C156.9 181.4 158.2 181.1 159.2 181.3C159.4 181.1 159.6 181 159.9 180.8C158.5 180.2 156.7 180.6 155.5 181.9C155.3 182.1 155.1 182.4 155 182.6L154.2 182.6C154.4 182.2 154.6 181.8 155 181.4C156.4 179.9 158.7 179.3 160.4 180.3C164.4 175.1 167.7 169.4 170.3 163.3L171.1 163.4ZM172.6 163.4C169.9 170 166.3 176.2 162 181.8C162.2 182.1 162.3 182.4 162.4 182.7L161.6 182.7C161.6 182.6 161.5 182.5 161.4 182.3L161 182.7L159.9 182.7C160.2 182.5 160.4 182.2 160.8 182C161 181.9 161.2 181.7 161.5 181.4C165.7 175.9 169.2 169.8 171.9 163.3L172.6 163.4ZM180.4 163.4C177.8 170.3 174.4 176.8 170.2 182.7L169.4 182.7C173.6 176.8 177.1 170.3 179.7 163.4L180.4 163.4ZM186.2 163.4L188.3 165.2L188.5 164.6L189.3 164.9L188.1 167.9L187.3 167.6L187.5 167L182.7 166.8L182.5 167.2L181.7 166.9L182.5 164.7L183.3 165L183.1 165.6L184.4 165.6L185.1 163.8L184.5 163.3L186.2 163.3L186.2 163.4ZM184.1 163.4L184 163.7L183.2 163.4L184.1 163.4ZM194.2 163.4C192 170.2 189.2 176.7 185.7 182.7L184.9 182.7C188.4 176.6 191.3 170.2 193.5 163.4L194.2 163.4ZM38.3 182.7C38.4 182.4 38.6 182.1 38.9 181.8C40 180.8 41.9 180.9 43.2 182.2C43.3 182.4 43.5 182.5 43.6 182.7L42.7 182.7C41.8 181.8 40.9 181.7 40.2 181.9C40.4 182.2 40.6 182.5 40.8 182.7L39.9 182.7C39.8 182.6 39.7 182.4 39.6 182.3C39.4 182.4 39.3 182.6 39.2 182.7L38.3 182.7ZM93.6 180.1L94.3 175.1L83.1 175.1L84.8 171.2L74.7 171.2L71.7 175.1L83 175.1L80.7 180.1C93.6 180.1 93.6 180.1 93.6 180.1ZM124.4 163.8L75.1 163.8L75.1 165.6L124.4 165.6L124.4 163.8ZM127.9 168.1L127.9 166.3L71.8 166.3L71.8 168.1L127.9 168.1ZM64.5 171.2L54.4 171.2L48.9 175.1L60.3 175.1L64.5 171.2ZM131.3 168.8L68.2 168.8L68.2 170.6L131.3 170.6L131.3 168.8ZM46.2 167.9C46.2 168.5 46.7 168.9 47.3 169L58.6 169C59.3 169 59.7 168.5 59.7 167.9C59.7 167.3 59.2 166.8 58.6 166.8L47.3 166.8C46.7 166.9 46.2 167.4 46.2 167.9ZM48.4 166.1L57.5 166.1L57.5 165.3L48.4 165.3L48.4 166.1ZM61 169.7L45 169.7L45 170.5L61 170.5L61 169.7ZM139.8 167.9C139.8 168.5 140.3 168.9 140.9 169L152.2 169C152.9 169 153.3 168.5 153.3 167.9C153.3 167.3 152.8 166.8 152.2 166.8L140.9 166.8C140.2 166.9 139.8 167.4 139.8 167.9ZM142 166.1L151.1 166.1L151.1 165.3L142 165.3L142 166.1ZM154.5 169.7L138.5 169.7L138.5 170.5L154.5 170.5L154.5 169.7ZM186 164.4L185.5 165.8L187.7 165.9L186 164.4ZM18.2 168.8C19.1 170.9 17.9 172.5 16.6 173.1C14.9 173.8 13 173.2 12.3 171.4C11.5 169.7 12.3 167.8 14 167C15.5 166.3 17.4 167.2 18.2 168.8ZM13.1 171C13.7 172.3 14.9 172.6 16.2 172C17.3 171.5 17.7 170.3 17.3 169.2C16.8 168 15.5 167.6 14.3 168.1C13.1 168.6 12.6 169.9 13.1 171ZM179.3 172.6L181.1 168.7L181.9 169.1L181.6 169.7L185.7 171.6L186 171L186.8 171.4L185.7 173.8L184.9 173.4L185.2 172.7L181.1 170.8L180.5 172.2L181.4 172.6L181 173.5L179.3 172.6Z" />
		<path id="Layer" fill-rule="evenodd" class="shp0" d="M1.8 144C2.5 150.7 3.9 157.1 5.9 163.3L5.2 163.3C3.2 157.1 1.8 150.6 1.1 144L1.8 144ZM11.4 145.6L9.2 145.9C8.6 146 8.6 146.6 8.7 147.1L8.8 147.8L10.8 147.5L10.7 146.8L11.5 146.7L11.8 149.2L11 149.3L10.9 148.6L6.4 149.2L6.5 149.9L5.7 150L5.3 147.3C5.2 146.9 5 146 5.7 145.3C6 145 6.4 144.9 6.5 144.9C7.2 144.8 7.7 145.1 8.1 145.7C8.2 145 8.6 144.8 9 144.8L10.4 144.6L10.3 144L11.2 144L11.4 145.6ZM15 144C15.9 150.7 17.5 157.2 19.8 163.3L19 163.3C16.7 157.2 15.1 150.7 14.2 144L15 144ZM22.5 144C23.4 150.8 25.1 157.2 27.6 163.3L26.8 163.3C24.3 157.2 22.6 150.7 21.7 144L22.5 144ZM23.9 144C24.8 150.8 26.6 157.2 29.2 163.3L28.4 163.3C25.9 157.2 24.1 150.7 23.2 144L23.9 144ZM48.3 144L47.9 163.3L47.2 163.3L47.6 144L48.3 144ZM58.3 144L58.7 163.3L58 163.3L57.6 144L58.3 144ZM78.4 144L78.4 163L82.3 163L82.3 144L83 144L83 163L83.7 163L83.7 144L84.4 144L84.4 163L115 163L115 144L115.7 144L115.7 163L116.4 163L116.4 144L117.1 144L117.1 163L121 163L121 144L121.7 144L121.7 163L125 163L125 163.3L74.3 163.3L74.3 163L77.6 163L77.6 144L78.4 144ZM97 144L94.5 150.3L93.2 149L94.5 144L97 144ZM105 144L106.3 149.2L105 150.5L102.5 144.1L105 144.1L105 144ZM141.9 144L141.5 163.3L140.8 163.3L141.2 144L141.9 144ZM151.9 144L152.3 163.3L151.6 163.3L151.2 144L151.9 144ZM176.3 144C175.4 150.8 173.6 157.2 171.1 163.3L170.3 163.3C172.9 157.2 174.6 150.7 175.6 144L176.3 144ZM177.7 144C176.8 150.7 175.1 157.2 172.6 163.3L171.8 163.3C174.3 157.2 176.1 150.7 176.9 144L177.7 144ZM185.1 144C184.3 150.7 182.6 157.2 180.3 163.3L179.6 163.3C181.9 157.2 183.6 150.7 184.4 144L185.1 144ZM198.3 144C197.6 150.7 196.2 157.1 194.2 163.3L193.5 163.3C195.5 157.1 196.9 150.6 197.6 144L198.3 144ZM9.2 163.4L9.1 163.2C9 162.8 8.6 161.9 9.2 161.1C9.5 160.7 9.8 160.6 9.9 160.6C10.6 160.4 11.1 160.6 11.6 161.1C11.6 160.4 12 160.2 12.3 160L13.6 159.6L13.4 159L14.2 158.7L14.7 160.4L12.6 161.1C12 161.3 12.2 161.9 12.3 162.3L12.5 162.9L14.4 162.3L14.2 161.6L15 161.3L15.6 163.2L11.3 163.2L11.6 163.1L11.4 162.4C11.2 161.8 10.9 161.2 10.1 161.5C9.4 161.7 9.6 162.5 9.8 163.1L9.8 163.2L9.2 163.2L9.2 163.4ZM183.2 163.4L184 161.3L184.8 161.6L184.6 162.1L186.2 163.4L184.6 163.4L184.2 163.1L184.1 163.4L183.2 163.4ZM99.8 156.6L108.6 147.9L109.8 149.2L99.9 159.1L87 146.3L88.3 145L99.8 156.6ZM93.3 153.6L90.5 160.7L90.2 160.7L92.3 152.7L93.3 153.6ZM107.2 152.8L109.3 160.7L109 160.7L106.3 153.7L107.2 152.8ZM185 157.9L190.3 156.7L186.5 155.7L186.3 156.4L185.5 156.2L186.1 153.9L186.9 154.1L186.7 154.7L191.1 155.9L191.3 155.3L192.1 155.5L191.6 157.5L187.3 158.4L190.2 159.2L190.4 158.6L191.2 158.8L190.6 161.1L189.8 160.9L190 160.3L184.8 158.9L185 157.9ZM187.1 148.5C187.5 146.2 189.4 145.5 190.8 145.8C192.6 146.1 193.8 147.7 193.5 149.6C193.2 151.5 191.5 152.6 189.7 152.4C188 152 186.8 150.2 187.1 148.5ZM192.5 149.4C192.7 148 191.8 147.1 190.5 146.9C189.3 146.7 188.3 147.5 188.1 148.6C187.9 149.9 188.7 151 190 151.2C191.2 151.3 192.3 150.6 192.5 149.4ZM6.3 148.2L8 148L7.9 147.3C7.8 146.7 7.6 146.1 6.8 146.2C6 146.3 6.1 147.1 6.2 147.7L6.3 148.2ZM12.7 156.4L8.3 157.5L8.5 158.2L7.7 158.4L7.2 156.2C6.8 154.7 7.2 154.1 7.3 153.8C7.4 153.5 8 152.4 9.5 152C10.6 151.7 11.7 152.3 11.8 152.4C12.5 152.9 12.9 153.3 13.3 154.7L13.8 156.8L13 157L12.7 156.4ZM8 156.4L12.5 155.3L12.3 154.7C11.9 153.2 10.6 152.9 9.5 153.1C8.5 153.3 7.4 154.2 7.8 155.9L8 156.4Z" />
		<path id="Layer" fill-rule="evenodd" class="shp0" d="M2.6 116.4C1.7 121.9 1.2 127.4 1.2 133.1C1.2 136.8 1.4 140.4 1.8 144L1.1 144C0.7 140.4 0.5 136.8 0.5 133.1C0.5 127.4 1 121.8 1.9 116.4L2.6 116.4ZM11.4 116.4L11.3 117L6.8 117.7L10.9 118.5L11 117.8L11.8 118L11.3 120.3L10.5 120.1L10.6 119.5L6.1 118.6L6 119.2L5.2 119L5.7 116.7L8.4 116.3L11.4 116.3L11.4 116.4ZM15.9 116.4C14.8 121.8 14.3 127.4 14.3 133.1C14.3 136.8 14.5 140.4 15 144L14.3 144C13.8 140.4 13.6 136.8 13.6 133.1C13.6 127.4 14.2 121.8 15.2 116.4L15.9 116.4ZM23.7 116.4C22.9 120 22.3 123.6 22 127.3C22.1 127.3 22.2 127.3 22.3 127.3C22.4 127.3 22.6 127.3 22.7 127.3C23 123.6 23.6 119.9 24.4 116.4L25.1 116.4C24.3 120 23.7 123.7 23.4 127.4C25.3 127.9 26.6 129.8 26.6 131.8C26.6 133.4 25.9 134.4 24.9 135.2C25.9 136.3 26.8 137.1 26.9 139C27 141.1 25.7 143.1 23.8 143.7C23.8 143.8 23.8 143.9 23.8 144L23.1 144L23.1 143.6C23.1 143.4 23.2 143.1 23.2 142.8C23.6 139.8 23.2 138 22.5 136.8C22.3 136.9 22.1 137.1 21.9 137.2C22.5 138.4 22.8 140 22.4 142.7C22.3 142.9 22.3 143.2 22.3 143.7C22.3 143.8 22.3 143.9 22.3 143.9L21.6 143.9C21.6 143.8 21.6 143.7 21.6 143.6C19.8 143.1 18.5 141.3 18.4 139.2C18.3 137.6 19.1 136.6 20.1 135.8C19.1 134.6 18.2 133.8 18.2 132C18.1 129.9 19.4 127.9 21.3 127.3C21.6 123.5 22.2 119.8 23 116.2L23.7 116.2L23.7 116.4ZM49 116.4L48.4 144L47.7 144L48.3 116.4L49 116.4ZM57.7 116.4L58.3 144L57.6 144L57 116.4L57.7 116.4ZM75.3 116.4L69.9 120L129.6 120L124.2 116.4L125.5 116.4L132 120.7L121.8 120.7L121.8 144L121.1 144L121.1 120.7L78.5 120.7L78.5 144L77.8 144L77.8 120.7L67.6 120.7L74.1 116.4L75.3 116.4ZM77.9 116.4L74.6 118.6L124.9 118.6L121.6 116.4L122.9 116.4L127.3 119.3L72.3 119.3L76.7 116.4L77.9 116.4ZM96.7 116.4L95.3 117.4L95.6 116.4L96.7 116.4ZM103.9 116.4L104.2 117.4L102.8 116.4L103.9 116.4ZM142.5 116.4L141.9 144L141.2 144L141.8 116.4L142.5 116.4ZM151.2 116.4L151.8 144L151.1 144L150.5 116.4L151.2 116.4ZM175 116.4C175.7 119.6 176.3 122.9 176.6 126.3C176.6 126.4 176.6 126.5 176.6 126.6C176.6 126.9 176.6 127.1 176.5 127.4C176 130.4 176.4 132.2 177 133.4C177.2 133.3 177.4 133.2 177.6 133C177.1 131.8 176.8 130.1 177.3 127.5C177.4 127.3 177.4 127.1 177.4 126.7C177.1 123.2 176.5 119.8 175.8 116.5L176.5 116.5C177.2 119.8 177.8 123.1 178.1 126.6C179.9 127.2 181.2 129 181.2 131.1C181.2 132.7 180.4 133.7 179.4 134.4C180.4 135.6 181.2 136.5 181.2 138.3C181.2 140.4 179.9 142.4 177.9 142.9C177.9 143.3 177.8 143.7 177.7 144.2L177 144.2C177 143.8 177.1 143.4 177.1 143C177 143 176.9 143 176.9 143C176.7 143 176.6 143 176.4 143C176.4 143.4 176.3 143.8 176.3 144.2L175.6 144.2C175.7 143.8 175.7 143.3 175.8 142.9C174 142.3 172.8 140.4 172.7 138.4C172.7 136.8 173.5 135.8 174.5 135C173.5 133.8 172.7 133 172.7 131.2C172.7 129.1 174 127.2 175.9 126.7C175.6 123.3 175 119.9 174.3 116.7L175 116.4ZM184.2 116.4C185.3 121.8 185.8 127.4 185.8 133.1C185.8 136.8 185.6 140.4 185.1 144L184.4 144C184.9 140.4 185.1 136.8 185.1 133.1C185.1 127.4 184.5 121.8 183.5 116.4L184.2 116.4ZM187.8 116.4L187.9 116.8L187.1 117L187 116.5L187.8 116.5L187.8 116.4ZM197.5 116.4C198.4 121.8 198.9 127.4 198.9 133.1C198.9 136.8 198.7 140.4 198.3 144L197.6 144C198 140.4 198.2 136.8 198.2 133.1C198.2 127.4 197.7 121.8 196.8 116.4L197.5 116.4ZM10.4 144L11.2 143.9L11.2 144L10.4 144ZM82.4 144L82.4 124.7L117.1 124.7L117.1 144L116.4 144L116.4 125.4L83.1 125.4L83.1 144L82.4 144ZM83.8 144L83.8 126.1L115.7 126.1L115.7 144L115 144L115 126.8L84.5 126.8L84.5 144L83.8 144ZM94.5 144L97.3 133.1C97.8 133.9 98.7 134.5 99.7 134.5C100.1 134.5 100.4 134.4 100.7 134.3L97 144L94.5 144ZM102.5 144L100.1 137.9L102.1 133.1L105 144L102.5 144ZM22.4 135.4C20.9 136.3 19.2 137.3 19.3 139.4C19.4 141.1 20.4 142.6 21.9 143.1L21.9 142.8L22 142.4C20.9 142 20.1 140.9 20 139.4C19.9 137.7 21.5 136.8 22.8 136C22.6 135.8 22.5 135.6 22.4 135.4ZM22.6 129.5C22.4 129.5 22.1 129.5 21.9 129.6C21.6 132.8 22.5 134.4 23.4 135.5C24.3 136.6 25.6 137.5 25.6 139.1C25.6 140.4 25 141.6 24.1 142.1C24.1 142.4 24 142.6 24 142.9C25.4 142.3 26.4 140.8 26.3 139C26.1 135.5 21.9 136 22.6 129.5ZM24.1 141.2C24.6 140.7 24.9 140 24.8 139.2C24.8 138 24.1 137.4 23.2 136.5C23.8 137.6 24.2 139 24.1 141.2ZM20.8 135.6C21 135.5 21.2 135.3 21.4 135.2C20.6 134.3 19.8 133.5 19.7 132.1C19.6 130.3 20.9 128.8 22.4 128.7C23.9 128.6 25.2 130 25.3 131.8C25.3 132.8 24.8 133.5 24.1 134.1C24.2 134.3 24.3 134.4 24.4 134.5L24.5 134.6C25.4 133.9 26 133 26 131.7C25.9 129.6 24.3 127.8 22.4 127.9C20.4 128 19 129.9 19 132C19 133.8 19.8 134.5 20.8 135.6ZM22 141.6C22.1 139.8 21.9 138.6 21.5 137.8C21 138.2 20.7 138.8 20.7 139.4C20.7 140.4 21.3 141.2 22 141.6ZM22 134.8C21.4 133.7 21 132.3 21.1 130C20.7 130.4 20.4 131.1 20.4 132C20.4 133.3 21.2 134 22 134.8ZM23.8 133.6C24.3 133.1 24.7 132.6 24.6 131.9C24.5 130.7 24 129.9 23.3 129.6C23.1 131.6 23.3 132.7 23.8 133.6ZM177.2 134.9C178.7 134 180.5 133.1 180.5 131C180.5 129.3 179.5 127.7 178 127.2L178 127.5L177.9 127.9C179 128.3 179.7 129.5 179.8 130.9C179.8 132.6 178.2 133.5 176.8 134.2C176.9 134.5 177 134.7 177.2 134.9ZM176.7 140.7C176.9 140.7 177.2 140.7 177.4 140.6C177.8 137.4 177 135.8 176.1 134.7C175.2 133.5 174 132.6 174 131C174 129.7 174.7 128.6 175.6 128C175.6 127.7 175.7 127.5 175.7 127.2C174.3 127.7 173.3 129.2 173.3 131C173.4 134.7 177.6 134.3 176.7 140.7ZM175.7 129C175.2 129.4 174.9 130.2 174.9 131C174.8 132.1 175.5 132.8 176.4 133.7C175.9 132.6 175.5 131.1 175.7 129ZM178.7 134.7C178.5 134.8 178.3 134.9 178.1 135.1C178.9 136 179.7 136.9 179.7 138.2C179.7 140.1 178.4 141.5 176.9 141.5C175.4 141.5 174.1 140.1 174.1 138.3C174.1 137.3 174.7 136.6 175.4 136C175.3 135.8 175.2 135.7 175.1 135.6L175 135.5C174.1 136.2 173.4 137 173.4 138.3C173.4 140.4 174.9 142.3 176.9 142.3C178.9 142.3 180.4 140.5 180.4 138.3C180.4 136.6 179.6 135.8 178.7 134.7ZM177.8 128.7C177.6 130.5 177.8 131.7 178.2 132.6C178.7 132.2 179 131.7 179 131C179 129.9 178.5 129.1 177.8 128.7ZM177.5 135.5C178 136.6 178.4 138.1 178.2 140.3C178.7 139.9 179 139.2 179 138.3C179 137.1 178.2 136.3 177.5 135.5ZM175.7 136.6C175.1 137.1 174.8 137.6 174.8 138.2C174.8 139.4 175.4 140.2 176.1 140.5C176.3 138.7 176.1 137.5 175.7 136.6ZM97.8 131.7L97.8 131.6C97.9 130.6 98.7 129.8 99.8 129.8C100.8 129.8 101.6 130.5 101.7 131.4C101.7 131.5 101.7 131.6 101.7 131.7C101.7 132.1 101.6 132.4 101.4 132.8C101 133.3 100.4 133.7 99.8 133.7C98.7 133.7 97.8 132.8 97.8 131.7ZM188 143.2L188.2 140.8L189.1 140.9L189 141.6L193.6 142L193.7 141.3L194.5 141.4L194.3 143.8L193.5 143.7L193.6 143.1L189 142.7L188.9 143.3L188 143.2ZM193 135.1L193 134.1L194.8 134.2L194.6 138.9L192.8 138.8L192.8 137.8L193.7 137.8L193.7 137L189.1 136.8L189.1 137.6L188.2 137.6L188.3 135L189.2 135L189.2 135.8L193.8 136L193.8 135.2L193 135.1ZM188.4 128.9L188.3 126.6L189.2 126.6L189.2 127.1L193.8 128.5L193.8 127.8L194.6 127.8L194.7 131L193.8 131L193.8 130.3L189.3 132L189.3 132.5L188.4 132.5L188.3 130.2L189.2 130.2L189.2 130.9L190.4 130.4L190.3 128.5L189.1 128.1L189.1 128.8L188.4 128.9ZM191.3 128.8L191.3 130.2L193.4 129.4L191.3 128.8ZM188 123.2L192.4 120.1L188.5 120.6L188.6 121.3L187.8 121.4L187.5 119.1L188.3 119L188.4 119.6L192.9 119L192.8 118.4L193.6 118.3L193.8 120.3L190.2 122.8L193.2 122.4L193.1 121.8L193.9 121.7L194.2 124L193.4 124.1L193.3 123.5L187.9 124.2L188 123.2ZM10.6 137.1L10.9 141.9L10 142L10 141.3L5.4 141.6L5.4 142.3L4.5 142.4L4.2 137.6L5.9 137.5L6 138.5L5.2 138.6L5.3 140.6L6.9 140.5L6.8 138.8L7.8 138.7L7.9 140.4L9.9 140.3L9.8 138.3L8.8 138.4L8.7 137.4L10.6 137.1Z" />
		<path id="Layer" fill-rule="evenodd" class="shp0" d="M4.4 108.2C3.7 110.9 3.1 113.7 2.6 116.5L1.9 116.5C2.4 113.7 3 110.9 3.7 108.2L4.4 108.2ZM8.5 108.3L8.47 108.3L8.5 108.2L8.5 108.3ZM8.4 108.5L7.6 108.3L8.47 108.3L8.4 108.5ZM11 108.4L11.1 108.2L12 108.2L11.8 108.8L12.9 109.6L13.1 108.9L13.9 109.1L13.2 111.3L12.4 111.1L12.6 110.6L9.2 108.2L10.8 108.2L11 108.4ZM18 108.2C17.2 110.9 16.5 113.7 15.9 116.5L15.2 116.5C15.8 113.7 16.4 110.9 17.3 108.2L18 108.2ZM26.1 108.2C25.2 110.9 24.4 113.7 23.7 116.5L23 116.5C23.6 113.7 24.4 110.9 25.3 108.2L26.1 108.2ZM27.6 108.2C26.6 110.9 25.8 113.7 25.2 116.5L24.5 116.5C25.1 113.7 25.9 110.9 26.9 108.2L27.6 108.2ZM49.2 108.2L49 116.5L48.3 116.5L48.5 108.2L49.2 108.2ZM57.5 108.2L57.7 116.5L57 116.5L56.8 108.2L57.5 108.2ZM87.8 108.2L75.3 116.5L74 116.5L86.5 108.2L87.8 108.2ZM90.4 108.2L77.9 116.5L76.6 116.5L89.1 108.2L90.4 108.2ZM99 108.2L98.5 109.6L94.6 109.6L97.7 111.9L96.5 115.6L99.7 113.3L102.9 115.6L101.7 111.9L104.8 109.6L100.9 109.6L100.4 108.2L101.1 108.2L101.3 108.9L106.8 109L102.4 112.3L103.7 116.5L102.6 116.5L99.5 114.3L96.4 116.5L95.3 116.5L96.6 112.3L92.2 109L97.7 108.9L97.9 108.2L99 108.2ZM110.4 108.2L122.9 116.5L121.6 116.5L109.1 108.2L110.4 108.2ZM112.9 108.2L125.4 116.5L124.1 116.5L111.6 108.2L112.9 108.2ZM122.4 108.2L121.8 109L121.7 108.2L122.4 108.2ZM125.2 108.2L124.8 109.3L124.2 108.2L125.2 108.2ZM127.8 108.2L127.8 108.6L127.4 108.2L127.8 108.2ZM142.7 108.2L142.5 116.5L141.8 116.5L142 108.2L142.7 108.2ZM151 108.2L151.2 116.5L150.5 116.5L150.3 108.2L151 108.2ZM172.6 108.2C173.5 110.9 174.3 113.7 175 116.5L174.3 116.5C173.6 113.7 172.8 110.9 171.9 108.2L172.6 108.2ZM174.1 108.2C175 110.9 175.8 113.7 176.4 116.5L175.7 116.5C175.1 113.7 174.3 110.9 173.3 108.2L174.1 108.2ZM182.1 108.2C182.9 110.9 183.6 113.7 184.2 116.5L183.5 116.5C182.9 113.7 182.3 110.9 181.4 108.2L182.1 108.2ZM185.9 108.2L186 108.6L187 108.3L187.3 109.3L185.5 109.8L185 108.1L185.9 108.1L185.9 108.2ZM190.9 108.2L189.9 108.5L189.8 108.2L190.9 108.2ZM195.7 108.2C196.4 110.9 197 113.7 197.5 116.5L196.8 116.5C196.3 113.7 195.7 110.9 195 108.2L195.7 108.2ZM8.4 116.4L9.5 116.3L6.2 114.3L6.6 112.1L7.4 112.3L7.3 112.9L11.8 113.8L11.9 113.2L12.7 113.4L12.2 115.7L11.4 115.5L11.5 114.8L7.4 114L11.3 116.4L11.3 116.5L8.4 116.5L8.4 116.4ZM187 116.4L186.8 115.2L189 114.7C189.6 114.6 189.5 113.9 189.4 113.5L189.3 112.8L187.3 113.2L187.4 113.9L186.6 114.1L186.1 111.7L186.9 111.5L187 112.2L191.5 111.2L191.4 110.5L192.2 110.3L192.8 112.9C192.9 113.3 193.1 114.2 192.5 114.9C192.2 115.3 191.8 115.3 191.7 115.3C191 115.5 190.5 115.2 190.1 114.6C190.1 115.3 189.6 115.5 189.3 115.6L187.9 115.9L187.9 116.1L187 116.1L187 116.4ZM191.7 112.4L190 112.8L190.1 113.5C190.2 114.1 190.5 114.7 191.3 114.5C192.1 114.3 191.9 113.6 191.8 113L191.7 112.4Z" />
		<path id="Layer" fill-rule="evenodd" class="shp0" d="M6.9 99.9C5.9 102.6 5.1 105.4 4.3 108.2L3.6 108.2C4.3 105.4 5.2 102.6 6.1 99.9L6.9 99.9ZM11.5 99.9C11.6 100.6 12.2 101.2 13 101.5C14.1 101.9 15.3 101.6 15.8 100.4C15.9 100.2 15.9 100 15.9 99.9L17 99.9C17 100.2 16.9 100.4 16.8 100.7L17.1 101.1C17.1 101 17.1 100.9 17.2 100.8C17.3 100.4 17.7 100.2 18.1 100.3C18.6 100.5 18.7 101.2 18.5 101.6C18.4 101.9 18.2 102.2 18 102.4L17.7 102.1C17.8 101.9 18 101.7 18.1 101.5C18.2 101.3 18.2 101 17.9 100.9C17.7 100.8 17.6 101 17.5 101.1C17.4 101.2 17.4 101.4 17.4 101.5L17.2 101.6L16.72 101.02C16.75 100.95 16.8 100.87 16.8 100.8L16.8 100.7L16.7 100.6L16.5 101L16.66 101.08C15.93 102.52 14.17 103.09 12.6 102.5C11.2 102 10.6 100.9 10.5 99.8L11.5 99.9ZM16.7 101C16.69 101.03 16.67 101.05 16.66 101.08L16.7 101.1C16.7 101.07 16.71 101.05 16.72 101.02L16.7 101ZM21 99.9C19.9 102.6 18.9 105.4 18 108.2L17.3 108.2C18.2 105.4 19.1 102.6 20.3 99.9L21 99.9ZM29.5 99.9C28.2 102.6 27.1 105.3 26.1 108.2L25.4 108.2C26.4 105.4 27.5 102.6 28.8 99.9L29.5 99.9ZM31.1 99.9C29.8 102.6 28.6 105.3 27.6 108.2L26.9 108.2C27.9 105.4 29.1 102.6 30.4 99.9L31.1 99.9ZM46.8 99.9C47.5 100.8 48.8 101.2 50 100.7C50.4 100.5 50.7 100.3 51 99.9L51.9 99.9C51.6 100.5 51 101 50.3 101.3C49.9 101.5 49.5 101.6 49 101.6L56.8 101.6C56.4 101.6 55.9 101.5 55.5 101.3C54.8 101 54.3 100.5 53.9 99.9L54.8 99.9C55.1 100.2 55.4 100.5 55.8 100.7C56.9 101.2 58.2 100.9 59 99.9L59.9 99.9C59.3 100.9 58.2 101.6 57 101.6L59.3 101.6L59.3 103.8L58.3 103.8L58.3 105.3L57.5 105.3L57.6 108.2L56.9 108.2L56.8 105.3L49.3 105.3L49.2 108.2L48.5 108.2L48.6 105.3L47.8 105.3L47.8 103.8L46.8 103.8L46.8 101.6L48.9 101.6C47.8 101.6 46.7 100.9 46.1 99.9L46.8 99.9ZM77 99.9C76.8 102.9 74.3 105.3 71.2 105.3C70.4 105.3 69.6 105.1 68.9 104.8L68.8 104.9C70.2 106.5 72.3 107.5 74.6 107.5C78.9 107.5 82.3 104.2 82.5 99.9L83.2 99.9C83 104.5 79.2 108.2 74.6 108.2C71.9 108.2 69.6 107 67.9 105L68.7 104C69.6 104.4 70.3 104.7 71.2 104.7C73.9 104.7 76.1 102.6 76.3 100L77 99.9ZM100.5 99.9L113 108.2L111.7 108.2L99.8 100.3L87.9 108.2L86.6 108.2L99.1 99.9L100.5 99.9ZM116.5 99.9L116.2 100.1L118.4 100.9L116.7 102.6L119.1 102.6L118 104.7L120.3 104L119.9 106.3L121.8 104.9L122.2 107.2L123.6 105.3L124.7 107.4L125.5 105.2L127.2 106.9L127.2 104.5L129.3 105.6L128.6 103.3L130.9 103.7L129.5 101.8L131.8 101.4L129.9 100L130.2 99.9L131.8 99.9L131.3 100.1L133.6 101.8L130.7 102.2L132.4 104.6L129.5 104.1L130.4 106.9L127.8 105.6L127.8 108.1L127.4 108.1L125.8 106.4L125.2 108.1L124.3 108.1L123.5 106.6L122.4 108.1L121.7 108.1L121.4 106L119 107.7L119.5 104.8L116.7 105.7L118 103.1L115.1 103.1L117.2 101L114.4 100.1L115 99.8L116.5 99.8L116.5 99.9ZM140.4 99.9C141.1 100.8 142.4 101.2 143.6 100.7C144 100.5 144.3 100.3 144.6 99.9L145.5 99.9C145.2 100.5 144.6 101 143.9 101.3C143.5 101.5 143.1 101.6 142.6 101.6L150.4 101.6C150 101.6 149.5 101.5 149.1 101.3C148.4 101 147.9 100.5 147.5 99.9L148.4 99.9C148.7 100.2 149 100.5 149.4 100.7C150.5 101.2 151.8 100.9 152.6 99.9L153.5 99.9C152.9 100.9 151.8 101.6 150.6 101.6L152.8 101.6L152.8 103.8L151.8 103.8L151.8 105.3L151 105.3L151.1 108.2L150.4 108.2L150.3 105.3L142.8 105.3L142.7 108.2L142 108.2L142.1 105.3L141.3 105.3L141.3 103.8L140.3 103.8L140.3 101.6L142.5 101.6C141.4 101.6 140.3 100.9 139.7 99.9L140.4 99.9ZM169.2 99.9C170.5 102.6 171.7 105.3 172.7 108.2L172 108.2C171 105.4 169.8 102.6 168.5 99.9L169.2 99.9ZM170.7 99.9C172 102.6 173.1 105.3 174.1 108.2L173.4 108.2C172.4 105.4 171.3 102.6 170 99.9L170.7 99.9ZM179.1 99.9C180.2 102.6 181.2 105.4 182.1 108.2L181.4 108.2C180.5 105.4 179.5 102.6 178.4 99.9L179.1 99.9ZM183 99.9L183.1 100.2L183.9 99.9L187.1 99.9L183.5 101.3L183.8 102L183 102.3L182.1 99.9L183 99.9ZM189.2 101L187.6 101.6L187.2 100.7L188 100.4L187.8 99.9L188.8 99.9L189.2 101ZM193.2 99.9C194.2 102.6 195 105.4 195.7 108.2L195 108.2C194.3 105.4 193.4 102.6 192.4 99.9L193.2 99.9ZM7.6 108.1L7.63 108.1L7.6 108.2L7.6 108.1ZM8.5 105.1L9.3 105.3L9.1 105.9L13.9 105.8L14 105.3L14.8 105.5L14.1 107.7L13.3 107.5L13.5 106.8L12.2 106.8L11.8 108L10.9 108L11.3 106.8L9.1 106.9L10.7 108.1L9.1 108.1L8.5 107.7L8.4 108.1L7.63 108.1L8.5 105.1ZM89.1 108.2L99.7 101.1L110.3 108.2L109 108.2L99.6 102L90.2 108.2L89.1 108.2ZM98.2 108.2L99.7 103.7L101.2 108.2L100.5 108.2L99.7 105.9L98.9 108.2L98.2 108.2ZM185 108.2L184.1 105.2L184.9 105L185.1 105.6L189.5 104.3L189.3 103.7L190.1 103.5L191.5 108.1L190.9 108.3L189.8 108.3L189.6 107.6L190.4 107.4L189.8 105.5L188.3 106L188.8 107.7L187.8 108L187.3 106.3L185.4 106.9L185.9 108.4L185 108.4L185 108.2ZM58.5 103.1L58.5 102.3L47.3 102.3L47.3 103.1L58.5 103.1ZM48.4 103.8L48.4 104.6L57.5 104.6L57.5 103.8L48.4 103.8ZM152 103.1L152 102.3L140.8 102.3L140.8 103.1L152 103.1ZM142 103.8L142 104.6L151.1 104.6L151.1 103.8L142 103.8Z" />
		<path id="Layer" fill-rule="evenodd" class="shp0" d="M9.1 94.4C8.3 96.2 7.6 98.1 6.9 99.9L6.2 99.9C6.9 98 7.6 96.2 8.4 94.4L9.1 94.4ZM19.2 94.4C18.2 95.2 16.8 95.1 15.8 94.7C15.6 94.6 15.5 94.5 15.4 94.4L19.2 94.4ZM23.6 94.4C22.7 96.2 21.8 98 21 99.9L20.3 99.9C21.1 98 21.9 96.2 22.8 94.4L23.6 94.4ZM32.5 94.4C31.4 96.2 30.5 98 29.6 99.9L28.8 99.9C29.7 98 30.7 96.2 31.7 94.4L32.5 94.4ZM34.1 94.4C33 96.2 32 98 31.1 99.9L30.3 99.9C31.2 98 32.2 96.2 33.3 94.4L34.1 94.4ZM49.1 94.4L49.2 94.9C49.4 94.9 49.5 94.9 49.7 95C49.6 94.8 49.6 94.6 49.5 94.5L50.2 94.5C50.3 95 50.6 95.4 50.9 95.7C51 95.8 51 95.8 51.1 95.9C51.6 96.3 52.1 96.5 52.8 96.5C53.4 96.5 54 96.3 54.5 95.9C54.6 95.8 54.6 95.8 54.7 95.7C55 95.4 55.3 95 55.4 94.5L56.1 94.5C56.1 94.7 56 94.9 55.9 95C56.1 95 56.2 94.9 56.4 94.9L56.5 94.4L59 94.4L59.1 95.1L60.5 94.9L59.5 96.2C60.2 97.2 60.4 98.4 59.9 99.6C59.8 99.7 59.8 99.8 59.7 99.9L59 99.9C59.1 99.7 59.3 99.5 59.4 99.3C59.8 98.3 59.6 97.2 59 96.4L58.8 96.2L59.1 95.8L58.7 95.9L58.5 94.7L57.5 95.4L57.3 95.1L57.2 95.5L56.9 95.5C56.3 95.5 55.7 95.7 55.3 96.1C55.2 96.2 55.2 96.2 55.1 96.3C54.9 96.5 54.7 96.8 54.5 97.1C54.1 98.1 54.3 99.1 54.9 99.9L54 99.9C53.5 99 53.4 97.9 53.8 96.9C53.5 97 53.2 97 52.9 97C52.6 97 52.3 97 52 96.9C52.4 97.9 52.3 99 51.8 99.9L50.9 99.9C51.5 99.1 51.7 98.1 51.3 97.1C51.2 96.8 51 96.5 50.7 96.3C50.6 96.2 50.5 96.2 50.5 96.1C50 95.7 49.5 95.5 48.9 95.5L48.6 95.5L48.5 95.1L48.3 95.4L47.3 94.7L47.2 95.9L46.8 95.8L47.1 96.2L46.9 96.4C46.2 97.2 46 98.3 46.5 99.3C46.6 99.5 46.7 99.7 46.9 99.9L46 99.9C45.9 99.8 45.9 99.7 45.8 99.6C45.3 98.5 45.5 97.2 46.2 96.2L45.2 94.9L46.6 95.1L46.7 94.4L49.1 94.4ZM52.4 94.4C52.4 94.7 52.2 94.9 52 94.9C51.7 94.9 51.5 94.7 51.5 94.4C51.5 94.4 51.5 94.4 51.5 94.3L52.4 94.4ZM54.3 94.4C54.3 94.7 54.1 94.9 53.8 94.9C53.5 94.9 53.3 94.7 53.3 94.4C53.3 94.4 53.3 94.4 53.3 94.3L54.3 94.4ZM73.9 94.4C75.8 95.4 77 97.3 77 99.5C77 99.6 77 99.8 77 99.9L76.3 99.9C76.3 99.8 76.3 99.6 76.3 99.5C76.3 96.7 74 94.4 71.2 94.4C70.2 94.4 69.5 94.6 68.7 95.1L68.1 94.4L73.9 94.4ZM81.6 94.4C82.7 95.8 83.3 97.6 83.3 99.5C83.3 99.6 83.3 99.8 83.3 99.9L82.6 99.9C82.6 99.8 82.6 99.6 82.6 99.5C82.6 97.5 81.9 95.7 80.7 94.4L81.6 94.4ZM106.1 94.4C104.1 94.8 102 95 99.7 95C97.4 95 95.3 94.8 93.3 94.4L106.1 94.4ZM116.1 94.4L118.7 94.8L118.6 94.4L119.3 94.4L119.7 95.7L117.4 95.3L118.8 97.2L116.5 97.6L118.4 99L116.6 99.9L115 99.9L117 98.9L114.7 97.2L117.6 96.8L115.9 94.5L116.1 94.5L116.1 94.4ZM121.1 94.4L121.1 94.5L120.8 94.4L121.1 94.4ZM131 94.4L130.3 95.8L133.2 95.8L131.1 97.8L133.9 98.7L131.8 99.8L130.2 99.8L132.1 98.9L129.9 98.1L131.6 96.4L129.2 96.4L130.3 94.3L128 95L128.1 94.3L131 94.3L131 94.4ZM142.7 94.4L142.8 94.9C143 94.9 143.1 94.9 143.3 95C143.2 94.8 143.2 94.6 143.1 94.5L143.8 94.5C143.9 95 144.2 95.4 144.5 95.7C144.6 95.8 144.6 95.8 144.7 95.9C145.2 96.3 145.7 96.5 146.4 96.5C147 96.5 147.6 96.3 148.1 95.9C148.2 95.8 148.2 95.8 148.3 95.7C148.6 95.4 148.9 95 149 94.5L149.7 94.5C149.7 94.7 149.6 94.9 149.5 95C149.7 95 149.8 94.9 150 94.9L150.1 94.4L152.6 94.4L152.7 95.1L154.1 94.9L153.1 96.2C153.8 97.2 154 98.4 153.5 99.6C153.4 99.7 153.4 99.8 153.3 99.9L152.4 99.9C152.6 99.7 152.7 99.5 152.8 99.3C153.2 98.3 153 97.2 152.4 96.4L152.2 96.2L152.5 95.8L152.1 95.9L152 94.7L151 95.4L150.8 95.1L150.7 95.5L150.4 95.5C149.8 95.5 149.3 95.7 148.8 96.1C148.7 96.2 148.7 96.2 148.6 96.3C148.4 96.5 148.2 96.8 148 97.1C147.6 98.1 147.8 99.1 148.4 99.9L147.5 99.9C147 99 146.9 97.9 147.3 96.9C147 97 146.7 97 146.4 97C146.1 97 145.8 97 145.5 96.9C145.9 97.9 145.8 99 145.3 99.9L144.4 99.9C145 99.1 145.2 98.1 144.8 97.1C144.7 96.8 144.5 96.5 144.2 96.3C144.1 96.2 144 96.2 143.9 96.1C143.4 95.7 142.9 95.5 142.3 95.5L142 95.5L141.9 95.1L141.7 95.4L140.7 94.7L140.6 95.9L140.2 95.8L140.5 96.2L140.3 96.4C139.6 97.2 139.4 98.3 139.9 99.3C140 99.5 140.1 99.7 140.3 99.9L139.4 99.9C139.3 99.8 139.3 99.7 139.2 99.6C138.7 98.5 138.9 97.2 139.6 96.2L138.6 94.9L140 95.1L140.1 94.4L142.7 94.4ZM146 94.4C146 94.7 145.8 94.9 145.6 94.9C145.3 94.9 145.1 94.7 145.1 94.4C145.1 94.4 145.1 94.4 145.1 94.3L146 94.4ZM147.9 94.4C147.9 94.7 147.7 94.9 147.4 94.9C147.1 94.9 146.9 94.7 146.9 94.4C146.9 94.4 146.9 94.4 146.9 94.3L147.9 94.4ZM166.2 94.4C167.3 96.2 168.3 98 169.2 99.9L168.4 99.9C167.5 98 166.5 96.2 165.4 94.4L166.2 94.4ZM167.8 94.4C168.8 96.2 169.8 98 170.7 99.9L169.9 99.9C169 98 168 96.2 167 94.4L167.8 94.4ZM176.6 94.4C177.5 96.2 178.4 98 179.1 99.9L178.4 99.9C177.6 98 176.7 96.2 175.8 94.4L176.6 94.4ZM184.7 94.4L180.6 96.4L180.2 95.6L181 94.4L184.7 94.4ZM186.2 94.4L185.8 94.6L185.7 94.4L186.2 94.4ZM191.1 94.4C191.9 96.2 192.6 98.1 193.3 99.9L192.6 99.9C191.9 98 191.2 96.2 190.4 94.4L191.1 94.4ZM10.4 99.9C10.4 99.4 10.4 98.9 10.6 98.4C10.7 98.2 11.1 97.4 11.7 97.1L11.3 97L11.6 96.1L13.5 96.8L13.2 97.7C12.8 97.7 12.5 97.8 12.2 98C11.9 98.2 11.7 98.5 11.6 98.8C11.5 99.2 11.4 99.5 11.5 99.9L10.4 99.9ZM15.9 99.8L15.91 99.8C15.91 99.83 15.91 99.87 15.9 99.9L15.9 99.8ZM15.3 98.3L15.7 97.3C16.7 98 17.1 98.9 17 99.8L15.91 99.8C15.97 99.24 15.68 98.77 15.3 98.3ZM99 99.9L99.7 99.4L100.4 99.9L99 99.9ZM182.1 99.9L182.9 99.5L183 99.9L182.1 99.9ZM184 99.9L187.5 98.6L187.2 97.9L186.4 98.2L186 97.3L187.6 96.7L188.9 100L188 100L187.9 99.7L187.2 100L184 100L184 99.9ZM146.5 94.5C146.8 94.5 147 94.7 147 95C147 95.3 146.8 95.5 146.5 95.5C146.2 95.5 146 95.3 146 95C146.1 94.7 146.3 94.5 146.5 94.5ZM152.1 96.8C152.3 96.9 152.4 97.2 152.3 97.4C152.2 97.6 151.9 97.7 151.7 97.6C151.5 97.5 151.4 97.2 151.5 97C151.6 96.8 151.9 96.7 152.1 96.8ZM151.2 98.9C151.4 99 151.5 99.3 151.4 99.5C151.3 99.7 151 99.8 150.8 99.7C150.6 99.6 150.5 99.3 150.6 99.1C150.7 98.9 151 98.8 151.2 98.9ZM150 97.1C150.2 97.2 150.3 97.5 150.2 97.7C150.1 97.9 149.8 98 149.6 97.9C149.4 97.8 149.3 97.5 149.4 97.3C149.5 97.1 149.7 97 150 97.1ZM150.4 96.1C150.6 96.2 150.7 96.5 150.6 96.7C150.5 96.9 150.2 97 150 96.9C149.8 96.8 149.7 96.5 149.8 96.3C149.9 96.1 150.2 96 150.4 96.1ZM149.5 98.1C149.7 98.2 149.8 98.5 149.7 98.7C149.6 98.9 149.3 99 149.1 98.9C148.9 98.8 148.8 98.5 148.9 98.3C149 98.1 149.3 98 149.5 98.1ZM150.1 99C150.3 99.1 150.4 99.4 150.3 99.6C150.2 99.8 149.9 99.9 149.7 99.8C149.5 99.7 149.4 99.4 149.5 99.2C149.6 99 149.9 98.9 150.1 99ZM151.1 96.9C151.3 97 151.4 97.3 151.3 97.5C151.2 97.7 150.9 97.8 150.7 97.7C150.5 97.6 150.4 97.3 150.5 97.1C150.6 96.9 150.8 96.8 151.1 96.9ZM151.5 95.9C151.7 96 151.8 96.3 151.7 96.5C151.6 96.7 151.3 96.8 151.1 96.7C150.9 96.6 150.8 96.3 150.9 96.1C151 95.9 151.3 95.8 151.5 95.9ZM150.6 98C150.8 98.1 150.9 98.4 150.8 98.6C150.7 98.8 150.4 98.9 150.2 98.8C150 98.7 149.9 98.4 150 98.2C150.1 98 150.4 97.9 150.6 98ZM151.7 97.9C151.9 98 152 98.3 151.9 98.5C151.8 98.7 151.5 98.8 151.3 98.7C151.1 98.6 151 98.3 151.1 98.1C151.2 97.9 151.4 97.8 151.7 97.9ZM141.3 97.9C141.5 97.8 141.8 97.9 141.9 98.1C142 98.3 141.9 98.6 141.7 98.7C141.5 98.8 141.2 98.7 141.1 98.5C141 98.2 141.1 98 141.3 97.9ZM142.4 98C142.6 97.9 142.9 98 143 98.2C143.1 98.4 143 98.7 142.8 98.8C142.6 98.9 142.3 98.8 142.2 98.6C142.1 98.3 142.2 98.1 142.4 98ZM141.5 95.9C141.7 95.8 142 95.9 142.1 96.1C142.2 96.3 142.1 96.6 141.9 96.7C141.7 96.8 141.4 96.7 141.3 96.5C141.2 96.3 141.3 96 141.5 95.9ZM142 96.9C142.2 96.8 142.5 96.9 142.6 97.1C142.7 97.3 142.6 97.6 142.4 97.7C142.2 97.8 141.9 97.7 141.8 97.5C141.6 97.3 141.7 97 142 96.9ZM142.9 99C143.1 98.9 143.4 99 143.5 99.2C143.6 99.4 143.5 99.7 143.3 99.8C143.1 99.9 142.8 99.8 142.7 99.6C142.5 99.4 142.6 99.1 142.9 99ZM143.5 98.1C143.7 98 144 98.1 144.1 98.3C144.2 98.5 144.1 98.8 143.9 98.9C143.7 99 143.4 98.9 143.3 98.7C143.2 98.5 143.3 98.2 143.5 98.1ZM142.6 96.1C142.8 96 143.1 96.1 143.2 96.3C143.3 96.5 143.2 96.8 143 96.9C142.8 97 142.5 96.9 142.4 96.7C142.3 96.5 142.4 96.2 142.6 96.1ZM143.1 97.1C143.3 97 143.6 97.1 143.7 97.3C143.8 97.5 143.7 97.8 143.5 97.9C143.3 98 143 97.9 142.9 97.7C142.7 97.5 142.8 97.2 143.1 97.1ZM141.8 98.9C142 98.8 142.3 98.9 142.4 99.1C142.5 99.3 142.4 99.6 142.2 99.7C142 99.8 141.7 99.7 141.6 99.5C141.5 99.3 141.6 99 141.8 98.9ZM140.9 96.8C141.1 96.7 141.4 96.8 141.5 97C141.6 97.2 141.5 97.5 141.3 97.6C141.1 97.7 140.8 97.6 140.7 97.4C140.5 97.2 140.7 97 140.9 96.8ZM47.3 96.8C47.5 96.7 47.8 96.8 47.9 97C48 97.2 47.9 97.5 47.7 97.6C47.5 97.7 47.2 97.6 47.1 97.4C46.9 97.2 47.1 97 47.3 96.8ZM48.2 98.9C48.4 98.8 48.7 98.9 48.8 99.1C48.9 99.3 48.8 99.6 48.6 99.7C48.4 99.8 48.1 99.7 48 99.5C47.9 99.3 48 99 48.2 98.9ZM49.5 97.1C49.7 97 50 97.1 50.1 97.3C50.2 97.5 50.1 97.8 49.9 97.9C49.7 98 49.4 97.9 49.3 97.7C49.1 97.5 49.2 97.2 49.5 97.1ZM49 96.1C49.2 96 49.5 96.1 49.6 96.3C49.7 96.5 49.6 96.8 49.4 96.9C49.2 97 48.9 96.9 48.8 96.7C48.7 96.5 48.8 96.2 49 96.1ZM49.9 98.1C50.1 98 50.4 98.1 50.5 98.3C50.6 98.5 50.5 98.8 50.3 98.9C50.1 99 49.8 98.9 49.7 98.7C49.6 98.5 49.7 98.2 49.9 98.1ZM49.3 99C49.5 98.9 49.8 99 49.9 99.2C50 99.4 49.9 99.7 49.7 99.8C49.5 99.9 49.2 99.8 49.1 99.6C48.9 99.4 49 99.1 49.3 99ZM48.4 96.9C48.6 96.8 48.9 96.9 49 97.1C49.1 97.3 49 97.6 48.8 97.7C48.6 97.8 48.3 97.7 48.2 97.5C48 97.3 48.1 97 48.4 96.9ZM47.9 95.9C48.1 95.8 48.4 95.9 48.5 96.1C48.6 96.3 48.5 96.6 48.3 96.7C48.1 96.8 47.8 96.7 47.7 96.5C47.6 96.3 47.7 96 47.9 95.9ZM48.8 98C49 97.9 49.3 98 49.4 98.2C49.5 98.4 49.4 98.7 49.2 98.8C49 98.9 48.7 98.8 48.6 98.6C48.5 98.3 48.6 98.1 48.8 98ZM47.7 97.9C47.9 97.8 48.2 97.9 48.3 98.1C48.4 98.3 48.3 98.6 48.1 98.7C47.9 98.8 47.6 98.7 47.5 98.5C47.4 98.2 47.5 98 47.7 97.9ZM58.1 97.9C58.3 98 58.4 98.3 58.3 98.5C58.2 98.7 57.9 98.8 57.7 98.7C57.5 98.6 57.4 98.3 57.5 98.1C57.6 97.9 57.8 97.8 58.1 97.9ZM57 98C57.2 98.1 57.3 98.4 57.2 98.6C57.1 98.8 56.8 98.9 56.6 98.8C56.4 98.7 56.3 98.4 56.4 98.2C56.5 98 56.8 97.9 57 98ZM57.9 95.9C58.1 96 58.2 96.3 58.1 96.5C58 96.7 57.7 96.8 57.5 96.7C57.3 96.6 57.2 96.3 57.3 96.1C57.4 95.9 57.7 95.8 57.9 95.9ZM57.5 96.9C57.7 97 57.8 97.3 57.7 97.5C57.6 97.7 57.3 97.8 57.1 97.7C56.9 97.6 56.8 97.3 56.9 97.1C57 96.9 57.2 96.8 57.5 96.9ZM56.5 99C56.7 99.1 56.8 99.4 56.7 99.6C56.6 99.8 56.3 99.9 56.1 99.8C55.9 99.7 55.8 99.4 55.9 99.2C56 99 56.3 98.9 56.5 99ZM55.9 98.1C56.1 98.2 56.2 98.5 56.1 98.7C56 98.9 55.7 99 55.5 98.9C55.3 98.8 55.2 98.5 55.3 98.3C55.4 98.1 55.7 98 55.9 98.1ZM56.8 96.1C57 96.2 57.1 96.5 57 96.7C56.9 96.9 56.6 97 56.4 96.9C56.2 96.8 56.1 96.5 56.2 96.3C56.3 96.1 56.6 96 56.8 96.1ZM56.4 97.1C56.6 97.2 56.7 97.5 56.6 97.7C56.5 97.9 56.2 98 56 97.9C55.8 97.8 55.7 97.5 55.8 97.3C55.9 97.1 56.1 97 56.4 97.1ZM57.6 98.9C57.8 99 57.9 99.3 57.8 99.5C57.7 99.7 57.4 99.8 57.2 99.7C57 99.6 56.9 99.3 57 99.1C57.1 98.9 57.4 98.8 57.6 98.9ZM58.5 96.8C58.7 96.9 58.8 97.2 58.7 97.4C58.6 97.6 58.3 97.7 58.1 97.6C57.9 97.5 57.8 97.2 57.9 97C58 96.8 58.3 96.7 58.5 96.8ZM52.9 94.5C53.2 94.5 53.4 94.7 53.4 95C53.4 95.3 53.2 95.5 52.9 95.5C52.6 95.5 52.4 95.3 52.4 95C52.5 94.7 52.7 94.5 52.9 94.5Z" />
		<path id="Layer" fill-rule="evenodd" class="shp0" d="M11.7 88.8C10.8 90.6 9.9 92.5 9.1 94.3L8.4 94.3C9.2 92.4 10 90.6 11 88.8L11.7 88.8ZM19 88.8C20.4 89.7 20.9 91.5 20.2 93C19.9 93.6 19.6 94 19.2 94.3L15.4 94.3C14.1 93.4 13.6 91.7 14.3 90.2C14.6 89.6 15 89.1 15.5 88.8L19 88.8ZM26.6 88.8C25.5 90.6 24.5 92.4 23.5 94.3L22.7 94.3C23.6 92.4 24.7 90.6 25.7 88.8L26.6 88.8ZM36.1 88.8C34.8 90.6 33.7 92.4 32.5 94.3L31.7 94.3C32.8 92.4 34 90.6 35.2 88.8L36.1 88.8ZM38.1 88.8C38.8 89.1 39.6 89 40.4 88.8L42 88.8C40.7 89.7 38.9 90 37.5 89.3C36.3 90.9 35.2 92.6 34.2 94.3L33.4 94.3C34.5 92.5 35.7 90.7 36.9 88.9C36.9 88.9 36.9 88.8 37 88.8L38.1 88.8ZM53.2 88.8L53.8 89.8L55 89L54.6 90.6C55.6 91.2 56.3 92.3 56.3 93.5C56.3 93.8 56.3 94 56.2 94.2L55.5 94.2C55.6 94 55.6 93.7 55.6 93.5C55.6 92.4 55 91.5 54 91.1L53.7 91L53.8 90.6L53.5 90.8L52.9 89.7L52.3 90.8L52 90.6L52.1 91L51.8 91.1C50.9 91.5 50.2 92.5 50.2 93.5C50.2 93.8 50.2 94 50.3 94.2L49.6 94.2C49.5 94 49.5 93.7 49.5 93.5C49.5 92.2 50.2 91.1 51.2 90.6L50.8 89L52 89.8L52.6 88.8L53.2 88.8ZM81.7 88.8L81.1 89.8L80.5 89.6L80.6 88.8L81.7 88.8ZM83.7 88.8C87.7 92.4 93.1 94.2 99.8 94.2C106.5 94.2 111.9 92.5 115.9 88.8L116.9 88.8C114 91.6 110.4 93.5 106.2 94.3L93.4 94.3C89.1 93.4 85.5 91.6 82.7 88.8L83.7 88.8ZM87.9 88.9L87.85 88.9L87.9 88.8L87.9 88.9ZM87.7 89.2C87.6 89.3 87.6 89.4 87.6 89.4C87.6 89.5 87.6 89.5 87.6 89.6C87.6 89.7 87.7 89.7 87.8 89.8C88.1 90 88.4 90 88.6 89.8C88.8 89.6 89 89.4 89.2 89.2C89.3 89.1 89.3 89 89.3 88.8L90 88.8C90 88.9 90 89 90 89.1C90 89.2 89.9 89.4 89.8 89.5C89.7 89.7 89.6 89.8 89.4 90C89.3 90.1 89.1 90.2 88.9 90.2C88.7 90.2 88.6 90.3 88.5 90.3C88.2 90.3 87.9 90.2 87.5 90L86.3 89.4L86.4 89.2C86.5 89.3 86.6 89.3 86.7 89.3C86.8 89.3 86.8 89.3 86.9 89.3C86.9 89.3 87 89.2 87 89.1L87.1 88.9L87.85 88.9L87.7 89.2ZM102.2 88.8C101.4 88.9 100.6 88.9 99.7 89C98.8 89 98 88.9 97.2 88.8L102.2 88.8ZM107.1 88.8C107.2 88.8 107.4 88.9 107.5 88.9L107.5 88.8L107.8 88.8L108.1 89.6L107.9 89.7C107.8 89.5 107.7 89.4 107.6 89.3C107.5 89.2 107.3 89.1 107.2 89.1C107 89.1 106.9 89.1 106.8 89.1C106.6 89.2 106.5 89.2 106.4 89.4C106.3 89.5 106.2 89.7 106.2 89.9C106.2 90.1 106.2 90.3 106.3 90.6C106.4 90.9 106.5 91.1 106.6 91.2C106.7 91.4 106.8 91.5 106.9 91.5C107 91.6 107.1 91.6 107.2 91.6C107.3 91.6 107.4 91.6 107.5 91.6C107.7 91.5 107.8 91.4 107.9 91.3C108 91.2 108.1 91 108.1 90.8C108.1 90.6 108.2 90.5 108.1 90.3L108.3 90.2L108.6 91.3L108.4 91.4C108.3 91.3 108.3 91.2 108.2 91.1C108.1 91.2 108 91.4 107.9 91.5C107.8 91.6 107.6 91.7 107.4 91.8C107.1 91.9 106.9 91.9 106.6 91.8C106.3 91.7 106.1 91.6 105.9 91.5C105.7 91.3 105.6 91.1 105.5 90.8C105.4 90.6 105.4 90.4 105.4 90.2C105.4 90 105.5 89.8 105.5 89.6C105.6 89.4 105.7 89.3 105.9 89.1C106.1 89 106.2 88.9 106.5 88.8C106.6 88.8 106.7 88.7 106.8 88.7L107.1 88.8ZM109.9 88.8L110 88.9L110.2 88.8L110.7 88.8L110.1 89.1L110.5 89.9C110.6 90 110.6 90.1 110.7 90.1C110.8 90.1 110.9 90.1 111 90L111.1 90.2L109.8 90.9L109.7 90.7C109.8 90.6 109.9 90.6 109.9 90.5C109.9 90.4 110 90.4 110 90.3C110 90.2 110 90.2 109.9 90.1L109.2 88.7L109.9 88.7L109.9 88.8ZM112.2 88.8L112.3 89C112.3 89.1 112.4 89.1 112.4 89.2C112.4 89.2 112.5 89.2 112.6 89.2C112.7 89.2 112.8 89.2 112.9 89.1L113 89.3L111.7 90L111.6 89.8C111.7 89.7 111.8 89.7 111.8 89.6C111.8 89.5 111.9 89.5 111.9 89.4C111.9 89.3 111.9 89.3 111.8 89.2L111.5 88.7L112.2 88.7L112.2 88.8ZM146.8 88.8L147.4 89.8L148.6 89L148.2 90.6C149.2 91.2 149.9 92.3 149.9 93.5C149.9 93.8 149.9 94 149.8 94.2L149.1 94.2C149.2 94 149.2 93.7 149.2 93.5C149.2 92.4 148.6 91.5 147.6 91.1L147.3 91L147.4 90.6L147.1 90.8L146.5 89.7L145.9 90.8L145.6 90.6L145.7 91L145.4 91.1C144.5 91.5 143.8 92.5 143.8 93.5C143.8 93.8 143.8 94 143.9 94.2L143.2 94.2C143.1 94 143.1 93.7 143.1 93.5C143.1 92.2 143.8 91.1 144.8 90.6L144.4 89L145.6 89.8L146.2 88.8L146.8 88.8ZM162.1 88.8L163.3 88.8L163.2 88.9C163.1 89 163 89.1 162.9 89.2C164.1 90.9 165.2 92.6 166.2 94.3L165.4 94.3C164.4 92.7 163.4 91.1 162.3 89.5C160.8 90.2 158.9 89.9 157.6 88.8L158.8 88.8C159.9 89.3 161.1 89.3 162.1 88.8ZM164.3 88.8C165.5 90.6 166.7 92.4 167.8 94.3L167 94.3C165.9 92.4 164.7 90.6 163.4 88.8L164.3 88.8ZM173.6 88.8C174.7 90.6 175.7 92.4 176.6 94.3L175.8 94.3C174.8 92.4 173.8 90.6 172.7 88.8L173.6 88.8ZM178.1 88.9L177.95 88.9L178.1 88.8L178.1 88.9ZM177.8 89L178.1 89.6L177.4 90L176.8 88.9L177.95 88.9L177.8 89ZM188.5 88.8C189.4 90.6 190.3 92.5 191 94.3L190.2 94.3C189.4 92.4 188.5 90.6 187.6 88.8L188.5 88.8ZM46.7 94.4L46.8 93.5L48.1 94.4L46.7 94.4ZM48.2 94.4L48.9 93.2L49.1 94.4L48.2 94.4ZM51.5 94.4C51.5 94.2 51.7 94 51.9 94C52.1 94 52.3 94.2 52.4 94.4L51.5 94.4ZM53.4 94.4C53.4 94.2 53.6 94 53.9 94C54.1 94 54.3 94.2 54.3 94.4L53.4 94.4ZM56.7 94.4L56.9 93.2L57.6 94.4L56.7 94.4ZM57.7 94.4L59 93.5L59.1 94.4L57.7 94.4ZM68.1 94.4L67.9 94.1C69.7 92.1 71.9 90.9 74.6 90.9C77.4 90.9 80 92.3 81.5 94.4L80.6 94.4C79.1 92.7 77 91.6 74.6 91.6C72.3 91.6 70.2 92.6 68.8 94.1L68.9 94.2C69.6 93.9 70.4 93.7 71.2 93.7C72.2 93.7 73.1 93.9 73.9 94.3L68.1 94.4ZM117.9 92L120.5 93.3L120.5 90.4L122.5 92.5L123.4 89.7L124.7 92.3L126.4 90L126.8 92.9L129.2 91.2L128.7 94.1L131.5 93.2L130.9 94.4L127.9 94.4L128.2 92.8L126.3 94.2L125.9 91.9L124.5 93.8L123.4 91.7L122.6 93.9L120.9 92.2L120.9 94.4L120.6 94.4L118.7 93.4L119 94.4L118.6 94.4L117.9 92ZM140.3 94.4L140.4 93.5L141.7 94.4L140.3 94.4ZM141.8 94.4L142.5 93.2L142.7 94.4L141.8 94.4ZM145.1 94.4C145.1 94.2 145.3 94 145.6 94C145.8 94 146 94.2 146.1 94.4L145.1 94.4ZM147 94.4C147 94.2 147.2 94 147.5 94C147.7 94 147.9 94.2 148 94.4L147 94.4ZM150.3 94.4L150.5 93.2L151.2 94.4L150.3 94.4ZM151.3 94.4L152.6 93.5L152.7 94.4L151.3 94.4ZM181.1 94.4L183.4 91.2L179.9 92.9L180.2 93.5L179.4 93.9L178.4 91.8L179.2 91.4L179.5 91.9L183.6 89.9L183.3 89.4L184.1 89L185 90.9L182.4 94.4L185.1 93.1L184.8 92.5L185.6 92.1L186.6 94.2L186.2 94.4L185.7 94.4L185.5 94L184.7 94.4L181.1 94.4ZM93.9 90.9C93.8 91.2 93.7 91.4 93.5 91.6C93.3 91.8 93.1 91.9 92.8 92C92.5 92.1 92.2 92 91.9 91.9C91.6 91.8 91.4 91.7 91.2 91.5C91 91.3 90.9 91.2 90.8 91C90.7 90.8 90.7 90.6 90.7 90.4C90.7 90.2 90.7 90 90.8 89.9C90.9 89.7 91 89.4 91.2 89.2C91.4 89 91.6 88.9 91.9 88.8C92.2 88.7 92.5 88.8 92.8 88.9C93.1 89 93.3 89.1 93.5 89.3C93.7 89.5 93.8 89.6 93.9 89.8C94 90 94 90.2 94 90.4C94 90.6 94 90.8 93.9 90.9ZM93.3 90.7C93.3 90.5 93.4 90.4 93.4 90.2C93.4 90.1 93.4 89.9 93.4 89.8C93.4 89.7 93.3 89.5 93.2 89.4C93.1 89.3 93 89.2 92.8 89.2C92.6 89.1 92.4 89.1 92.2 89.2C92 89.3 91.9 89.4 91.8 89.6C91.7 89.8 91.6 89.9 91.5 90.2C91.5 90.3 91.4 90.4 91.4 90.6C91.4 90.7 91.4 90.9 91.4 91C91.4 91.1 91.5 91.3 91.6 91.4C91.7 91.5 91.8 91.6 92.1 91.7C92.3 91.8 92.5 91.8 92.6 91.7C92.8 91.6 92.9 91.6 93 91.4C93.1 91.3 93.2 91.2 93.2 91C93.2 90.9 93.2 90.8 93.3 90.7ZM99.4 93L98 92.9L98 92.7C98.1 92.7 98.2 92.7 98.3 92.7C98.4 92.7 98.4 92.6 98.4 92.6L98.4 92.5L98.3 92.1L97.3 92.1L97.2 92.3C97.2 92.4 97.1 92.5 97.1 92.5C97.1 92.6 97.1 92.6 97.2 92.7C97.3 92.7 97.3 92.7 97.4 92.7L97.4 92.9L96.4 92.8L96.4 92.6C96.5 92.6 96.6 92.6 96.6 92.6C96.7 92.6 96.7 92.5 96.8 92.4C96.9 92.3 96.9 92.2 97 92L98 89.8L98.2 89.8L99 92.1C99.1 92.3 99.1 92.4 99.1 92.4C99.1 92.5 99.2 92.5 99.2 92.5C99.3 92.5 99.3 92.6 99.4 92.6L99.4 93ZM98.1 91.9L97.7 90.8L97.3 91.8L98.1 91.9ZM102.9 92C102.9 92.2 102.9 92.3 102.8 92.4C102.7 92.5 102.6 92.6 102.5 92.7C102.4 92.8 102.3 92.8 102.1 92.8C102 92.8 101.9 92.8 101.7 92.9L100.2 93L100.2 92.8C100.3 92.8 100.4 92.8 100.5 92.7C100.6 92.7 100.6 92.6 100.6 92.6C100.6 92.6 100.6 92.5 100.6 92.4L100.4 90.5C100.4 90.4 100.4 90.3 100.3 90.2C100.2 90.2 100.1 90.1 100 90.2L100 90L100.6 89.9C100.7 89.9 101.8 89.9 102 89.9C102.2 89.9 102.3 90 102.5 90.1C102.6 90.2 102.7 90.3 102.7 90.6C102.7 90.8 102.7 90.9 102.6 91C102.5 91.1 102.3 91.2 102.1 91.3C102.3 91.3 102.4 91.4 102.6 91.4C102.7 91.5 102.8 91.5 102.9 91.6C102.9 91.8 102.9 91.9 102.9 92ZM102.1 90.6C102.1 90.5 102.1 90.4 102 90.3C101.9 90.2 101.9 90.2 101.8 90.1C101.7 90.1 101.6 90.1 101.4 90.1L101.2 90.1L101.3 91.2L101.5 91.2C101.7 91.2 101.9 91.1 102 91C102 91 102.1 90.8 102.1 90.6ZM102.3 92.1C102.3 91.9 102.2 91.7 102.1 91.7C102 91.6 101.8 91.6 101.6 91.6L101.2 91.6L101.3 92.3C101.3 92.4 101.3 92.6 101.3 92.6C101.3 92.7 101.4 92.7 101.4 92.7C101.5 92.7 101.5 92.7 101.7 92.7C101.8 92.7 102 92.6 102.1 92.5C102.2 92.4 102.3 92.3 102.3 92.1ZM145.6 92.9C145.9 92.9 146.1 93.1 146.1 93.4C146.1 93.7 145.9 93.9 145.6 93.9C145.3 93.9 145.1 93.7 145.1 93.4C145.1 93.1 145.3 92.9 145.6 92.9ZM146.5 93.4C146.8 93.4 147 93.6 147 93.9C147 94.2 146.8 94.4 146.5 94.4C146.2 94.4 146 94.2 146 93.9C146.1 93.6 146.3 93.4 146.5 93.4ZM146.5 91.1C146.8 91.1 147 91.3 147 91.6C147 91.9 146.8 92.1 146.5 92.1C146.2 92.1 146 91.9 146 91.6C146.1 91.3 146.3 91.1 146.5 91.1ZM146.5 92.3C146.8 92.3 147 92.5 147 92.8C147 93.1 146.8 93.3 146.5 93.3C146.2 93.3 146 93.1 146 92.8C146 92.5 146.3 92.3 146.5 92.3ZM147.4 91.7C147.7 91.7 147.9 91.9 147.9 92.2C147.9 92.5 147.7 92.7 147.4 92.7C147.1 92.7 146.9 92.5 146.9 92.2C147 92 147.2 91.7 147.4 91.7ZM147.4 92.9C147.7 92.9 147.9 93.1 147.9 93.4C147.9 93.7 147.7 93.9 147.4 93.9C147.1 93.9 146.9 93.7 146.9 93.4C147 93.1 147.2 92.9 147.4 92.9ZM145.6 91.7C145.9 91.7 146.1 91.9 146.1 92.2C146.1 92.5 145.9 92.7 145.6 92.7C145.3 92.7 145.1 92.5 145.1 92.2C145.1 92 145.3 91.7 145.6 91.7ZM52 91.7C52.3 91.7 52.5 91.9 52.5 92.2C52.5 92.5 52.3 92.7 52 92.7C51.7 92.7 51.5 92.5 51.5 92.2C51.5 92 51.7 91.7 52 91.7ZM53.8 92.9C54.1 92.9 54.3 93.1 54.3 93.4C54.3 93.7 54.1 93.9 53.8 93.9C53.5 93.9 53.3 93.7 53.3 93.4C53.4 93.1 53.6 92.9 53.8 92.9ZM53.8 91.7C54.1 91.7 54.3 91.9 54.3 92.2C54.3 92.5 54.1 92.7 53.8 92.7C53.5 92.7 53.3 92.5 53.3 92.2C53.4 92 53.6 91.7 53.8 91.7ZM52.9 92.3C53.2 92.3 53.4 92.5 53.4 92.8C53.4 93.1 53.2 93.3 52.9 93.3C52.6 93.3 52.4 93.1 52.4 92.8C52.4 92.5 52.7 92.3 52.9 92.3ZM52.9 91.1C53.2 91.1 53.4 91.3 53.4 91.6C53.4 91.9 53.2 92.1 52.9 92.1C52.6 92.1 52.4 91.9 52.4 91.6C52.5 91.3 52.7 91.1 52.9 91.1ZM52.9 93.4C53.2 93.4 53.4 93.6 53.4 93.9C53.4 94.2 53.2 94.4 52.9 94.4C52.6 94.4 52.4 94.2 52.4 93.9C52.5 93.6 52.7 93.4 52.9 93.4ZM52 92.9C52.3 92.9 52.5 93.1 52.5 93.4C52.5 93.7 52.3 93.9 52 93.9C51.7 93.9 51.5 93.7 51.5 93.4C51.5 93.1 51.7 92.9 52 92.9ZM15.2 90.6C14.6 91.8 15.2 93 16.4 93.6C17.5 94.1 18.7 93.7 19.2 92.6C19.8 91.4 19.3 90.2 18.1 89.6C17.1 89.2 15.8 89.6 15.2 90.6ZM115.8 94.4L115.8 94.4L116.1 94.4L115.8 94.4Z" />
		<path id="Layer" fill-rule="evenodd" class="shp0" d="M18.2 77.8C15.8 81.3 13.6 85 11.7 88.8L10.9 88.8C12.8 85 15 81.3 17.3 77.8L18.2 77.8ZM24.5 77.8L27.2 79.8L27.6 79.2L28.3 79.7L26.9 81.6L26.2 81.1L26.5 80.6L22.8 77.8L22.4 78.3L21.7 77.8L21.7 77.7L24.5 77.7L24.5 77.8ZM34.6 77.8C31.6 81.3 29 85 26.6 88.8L25.8 88.8C28.1 84.9 30.8 81.2 33.7 77.8L34.6 77.8ZM29.8 77.8L29.4 78.3L26.4 77.8L29.8 77.8ZM41.5 77.8C40.7 78.9 40.7 79.9 40.7 81.2C40.9 81.2 41.2 81.3 41.4 81.3C41.4 80.1 41.4 79 42.3 77.9C42.4 77.8 42.4 77.8 42.5 77.7L43.6 77.7C43.3 77.9 43.1 78.1 42.9 78.3C42.1 79.2 42.2 80.3 42.2 81.3C42.5 80.2 43.1 79 44.4 77.6L45.4 77.6C43.2 79.7 42.8 81.3 42.7 82.7C42.6 84.2 42.9 85.6 41.9 86.9C41 87.9 39.8 88.3 38.7 88.1C38.5 88.3 38.3 88.5 38.1 88.6L37 88.6C37.2 88.4 37.4 88.2 37.7 88C40 86.1 40.9 84.5 41.3 83.2C41.1 83.2 40.8 83.1 40.6 83.1C40.2 84.3 39.3 85.8 37.2 87.5C37 87.6 36.8 87.8 36.5 88.1C36.4 88.3 36.3 88.4 36.2 88.6L35.3 88.6C35.5 88.3 35.7 88 36 87.6C35 86 35.3 83.8 36.6 82.2C37.6 81 38.9 80.8 40.1 80.9C40.1 79.6 40.1 78.6 40.8 77.5L41.5 77.8ZM47 77.8C47.7 78.8 47.6 80.4 46.6 81.6C45.9 82.4 45.1 82.5 44.2 82.5C44.2 82.7 44.2 82.9 44.1 83L44.1 83.2C45.2 83.3 46.3 83.1 47.1 82.1C48.2 80.8 48.5 79.1 47.8 77.8L48.6 77.8C49.2 79.3 48.8 81.2 47.7 82.6C46.7 83.8 45.4 84 44.1 84C44.1 85.5 44.2 86.7 43 88.1C42.7 88.4 42.4 88.7 42.1 88.9L40.5 88.9C41.2 88.7 41.9 88.2 42.5 87.6C44.9 84.9 41.5 82.4 46.3 78.1C46.2 78 46.1 78 46.1 77.9L47 77.9L47 77.8ZM63.4 77.8C64.6 79.8 66.9 81.3 69.3 81.3C71.9 81.3 74.2 80.1 75 77.8L75.7 77.8C74.8 80.4 72.2 82 69.2 82C66.5 82 63.7 80.2 62.5 77.8L63.4 77.8ZM70 77.8C69.8 77.9 69.6 77.9 69.3 77.9C69.1 77.9 68.9 77.9 68.6 77.8L70 77.8ZM77 77.8C78 81 79.3 83.7 81 85.9C81.2 86.2 81.4 86.4 81.6 86.7C81.7 86.8 81.8 87 82 87.1C82.2 87.3 82.3 87.5 82.5 87.6C82.9 88 83.3 88.4 83.7 88.8L82.7 88.8C82.5 88.6 82.3 88.4 82.1 88.2L81.7 88.8L80.6 88.8L80.9 86.8C79 84.3 77.4 81.3 76.3 77.7L77 77.7L77 77.8ZM84.8 77.8L85.5 82.2C88.6 86.1 93.4 88.1 99.8 88.3C108.3 88.1 113.8 84.7 116.6 77.8L117.4 77.8C114.9 84.4 109.8 88.1 102.3 88.8L97.4 88.8C92.4 88.3 88.6 86.5 85.8 83.5C85.5 83.2 85.2 82.8 84.9 82.5C84.1 81.5 83.4 80.4 82.9 79.1C82.7 78.7 82.5 78.3 82.4 77.9C82.4 77.9 82.4 77.8 82.3 77.8L84.8 77.8ZM92.5 77.8C92.6 78.8 92.7 80 92.9 80.7L93.7 79.1C93.9 80.5 94.1 81.8 94.8 83L96.1 81.1C96.2 82.2 96.3 83.3 96.7 84.3L98.4 82.1C98.5 83.5 98.6 84.9 99.7 86C100.8 84.9 100.9 83.6 101 82.1L102.7 84.3C103.1 83.3 103.2 82.2 103.3 81.1L104.6 83C105.4 81.8 105.5 80.5 105.7 79.1L106.5 80.7C106.7 79.9 106.8 78.8 106.9 77.8C106.6 78.2 106.2 78.5 105.8 78.8L105.8 77.7L107.6 77.7C107.6 77.8 107.6 78 107.6 78.1C107.4 79.7 107.3 81 106.6 82.4L106.1 81.3C105.8 82.5 105.4 83.2 104.6 84.2L103.8 83C103.6 84.1 103.3 84.7 102.8 85.7L101.5 83.9C101.2 85.2 100.7 86 99.7 86.9C98.7 86 98.2 85.2 97.9 83.9L96.6 85.7C96.1 84.8 95.8 84.1 95.6 83L94.8 84.2C94.1 83.2 93.6 82.5 93.3 81.3L92.8 82.4C92 81 91.9 79.7 91.8 78.1C91.8 78 91.8 77.8 91.8 77.7L92.5 77.8ZM93.7 77.8L93.7 78.9C93.3 78.5 92.9 78.2 92.5 77.8L93.7 77.8ZM95.3 77.8L95.3 78.8C94.8 78.4 94.5 78.1 94.2 77.8L95.3 77.8ZM97 77.8L97 78.8C96.5 78.4 96.2 78.2 95.8 77.8L97 77.8ZM103.7 77.8C103.4 78.2 103 78.5 102.5 78.8L102.5 77.8L103.7 77.8ZM105.4 77.8C105.1 78.2 104.7 78.5 104.3 78.8L104.3 77.8L105.4 77.8ZM123.3 77.8C121.8 82.4 119.7 86.1 116.9 88.8L115.9 88.8C118.9 86.1 121.1 82.4 122.6 77.8L123.3 77.8ZM124.5 77.8C125.4 80 127.6 81.3 130.2 81.3C132.5 81.3 134.9 79.8 136.1 77.8L136.9 77.8C135.7 80.2 133 82 130.2 82C127.2 82 124.6 80.5 123.7 77.8L124.5 77.8ZM152.6 77.8C154.2 80.2 155.6 81.3 156.8 81.8C156.9 81.6 156.9 81.3 157 81.1C155.9 80.6 154.7 79.7 153.4 77.8L154.2 77.8C155.3 79.3 156.2 80 157.1 80.4C157.2 79.8 157.1 79.1 156.7 78.7C156.3 78.2 155.8 77.9 155.3 77.8L156.8 77.8C157 77.9 157.1 78.1 157.2 78.2C158.3 79.4 157.7 81.2 157.2 82.6C157.4 82.6 157.7 82.7 157.9 82.8C158.5 81.2 159.1 79.3 157.8 77.8L158.7 77.8C159.3 78.8 159.4 79.9 159.2 80.9C160.8 81.2 161.9 81.3 163.1 82.6C164.5 84.2 164.8 86.5 163.7 88.1C163.9 88.3 164 88.5 164.2 88.8L163.3 88.8C163.3 88.8 163.3 88.7 163.2 88.7L163.1 88.8L161.9 88.8C162.1 88.7 162.3 88.5 162.5 88.4C164 87.1 163.9 84.7 162.5 83.1C161.4 81.9 160.3 81.8 158.9 81.6C158.8 81.8 158.8 82 158.7 82.3C159.9 82.5 161 82.6 161.9 83.6C163.1 85 163.1 86.9 162 87.9C160.9 88.9 159 88.7 157.7 87.4C157 86.7 157 85.8 157.1 84.9C156.9 84.9 156.7 84.8 156.6 84.8L156.4 84.8C156.2 85.9 156.3 87 157.1 87.9C157.5 88.3 158 88.7 158.5 88.9L157.2 88.9C157 88.7 156.8 88.5 156.6 88.4C155.6 87.2 155.5 85.9 155.7 84.7C154.2 84.5 153 84.4 151.8 83.1C150.5 81.7 150.1 79.6 150.9 78L152.6 77.8ZM165.7 77.8C168.6 81.3 171.3 85 173.6 88.8L172.8 88.8C170.4 84.9 167.8 81.2 164.8 77.8L165.7 77.8ZM170.3 77.8L171 78.7L171.8 78.1L172.4 78.9L171 80L169.2 77.8L170.3 77.8ZM182 77.8C184.4 81.3 186.5 85 188.5 88.8L187.7 88.8C185.8 85 183.6 81.3 181.2 77.8L182 77.8ZM15.5 88.8C16.4 88.2 17.6 88.1 18.7 88.6C18.8 88.6 18.9 88.7 19 88.8L15.5 88.8ZM52.7 88.8L52.9 88.4L53.1 88.8L52.7 88.8ZM87.2 88.7L87.25 88.7L87.2 88.8L87.2 88.7ZM87.9 87.4C88 87.3 88 87.2 88 87.1C88 87 87.9 86.9 87.7 86.9L87.8 86.7L88.4 87L88.6 87.1L88.8 87.2C89 87.3 89.2 87.4 89.3 87.5C89.4 87.6 89.6 87.7 89.7 87.8C89.8 87.9 89.9 88 89.9 88.2C90 88.3 90 88.5 90 88.6L90 88.7L89.3 88.7C89.3 88.6 89.4 88.4 89.4 88.3C89.4 88.1 89.3 87.9 89.2 87.7C89.1 87.6 89.1 87.6 89 87.5C88.9 87.4 88.8 87.4 88.6 87.3L87.9 88.7L87.25 88.7L87.9 87.4ZM107.6 88.6L107.8 88.5L107.9 88.7L107.6 88.7C107.6 88.7 107.6 88.7 107.6 88.6ZM109.1 88.6C109.1 88.5 109 88.5 109 88.4C109 88.4 108.9 88.4 108.8 88.4C108.7 88.4 108.6 88.4 108.5 88.5L108.4 88.3L109.7 87.6L109.8 87.8C109.6 87.9 109.5 88 109.5 88C109.5 88.1 109.5 88.2 109.6 88.3L109.9 88.8L109.2 88.8L109.1 88.6ZM110.2 88.8L111.2 88.3L110.9 87.7C110.9 87.6 110.8 87.6 110.8 87.5C110.8 87.5 110.7 87.4 110.6 87.5C110.5 87.5 110.4 87.5 110.3 87.6L110.2 87.4L111.5 86.7L111.6 86.9C111.5 87 111.4 87 111.4 87.1C111.4 87.2 111.3 87.2 111.3 87.3C111.3 87.3 111.3 87.4 111.4 87.5L112.1 88.9L111.4 88.9L111.3 88.6L110.7 88.9L110.2 88.9L110.2 88.8ZM146.3 88.8L146.5 88.4L146.7 88.8L146.3 88.8ZM176.1 87.8L176.8 87.4L177.1 88L181.1 85.8L180.8 85.2L181.5 84.8L182.7 86.9L182 87.3L181.7 86.7L178 88.8L176.7 88.8L176.1 87.8ZM81.6 87.7L81.5 87.6L81.4 88L81.6 87.7ZM84.5 81L84 78L83 78C83.4 79 83.9 80 84.5 81ZM158.7 83C159.8 83.5 161.1 84.3 162.4 86.1C162.5 85.5 162.2 84.8 161.6 84.1C160.8 83.2 159.7 83.1 158.7 83ZM158.1 85.1C158 85.8 158.1 86.4 158.5 86.9C159.3 87.8 160.3 88 161 87.8C159.9 86.2 159 85.5 158.1 85.1ZM161.6 87.4C161.8 87.3 162 87.1 162.1 86.9C160.2 84.2 158.6 83.6 157.2 83.3C155.7 83 154.3 83.2 153.2 82C152.3 81 152.1 79.7 152.4 78.7C152.2 78.5 152.1 78.2 151.9 78C151.2 79.3 151.5 81.1 152.6 82.4C155.1 85.2 157.9 82.1 161.6 87.4ZM152.9 79.5C152.8 80.2 153.1 80.9 153.6 81.5C154.4 82.4 155.4 82.4 156.6 82.5C155.5 82 154.2 81.2 152.9 79.5ZM42 82.2C40.3 81.8 38.4 81.4 37 83C35.9 84.3 35.6 86.1 36.4 87.5L36.6 87.3L36.9 87C36.4 86 36.6 84.6 37.5 83.5C38.6 82.2 40.4 82.6 41.9 82.9C42 82.7 42 82.4 42 82.2ZM39.4 87.6C40.1 87.6 40.8 87.3 41.3 86.6C42 85.8 41.9 84.8 41.9 83.6C41.6 84.8 40.9 86.1 39.4 87.6ZM44.3 81.8C45 81.8 45.6 81.7 46 81.2C46.8 80.3 46.9 79.3 46.6 78.6C45.2 79.9 44.6 80.9 44.3 81.8ZM37.5 86.5C38.8 85.3 39.4 84.2 39.7 83.3C39.1 83.3 38.5 83.5 38 83.9C37.4 84.7 37.2 85.7 37.5 86.5ZM83.6 85C83.4 85.2 83.2 85.3 82.9 85.3C82.6 85.3 82.4 85.3 82.1 85.2C81.8 85.1 81.6 84.9 81.4 84.6C81.2 84.4 81.1 84.2 81 83.9C80.9 83.7 80.9 83.5 81 83.3C81 83.1 81.1 82.9 81.2 82.8C81.3 82.6 81.4 82.5 81.6 82.4C81.8 82.2 82 82.1 82.3 82.1C82.6 82 82.8 82.1 83.1 82.2C83.4 82.3 83.6 82.5 83.8 82.8C84 83 84.1 83.3 84.2 83.5C84.3 83.7 84.3 84 84.2 84.1C84.2 84.3 84.1 84.5 84 84.6C83.8 84.8 83.7 84.9 83.6 85ZM83.2 84.5C83.3 84.4 83.4 84.3 83.5 84.2C83.6 84.1 83.7 84 83.7 83.8C83.7 83.7 83.8 83.5 83.7 83.4C83.7 83.3 83.6 83.1 83.5 83C83.3 82.8 83.2 82.7 83 82.7C82.8 82.7 82.6 82.7 82.5 82.8C82.3 82.9 82.1 83 82 83.1C81.9 83.2 81.8 83.3 81.7 83.4C81.6 83.5 81.5 83.6 81.5 83.7C81.4 83.8 81.4 84 81.4 84.1C81.4 84.3 81.5 84.4 81.6 84.6C81.7 84.8 81.9 84.9 82 84.9C82.2 84.9 82.3 84.9 82.5 84.9C82.6 84.9 82.8 84.8 82.9 84.7C83 84.6 83.1 84.5 83.2 84.5ZM85.7 88.8L85.1 88.3C85.1 88.3 85.1 88.2 85.1 88.1C85.1 88 85.1 87.9 85.1 87.8L85.1 87.6L85.2 87.2C85.2 87 85.2 86.9 85.2 86.8C85.2 86.7 85.2 86.7 85.1 86.6C85.1 86.6 85 86.5 84.9 86.4L84.8 86.3L84.3 86.9C84.2 87 84.2 87 84.2 87.1C84.2 87.2 84.2 87.2 84.2 87.3C84.2 87.4 84.3 87.4 84.4 87.5L84.3 87.7L83.2 86.7L83.3 86.5C83.4 86.6 83.5 86.7 83.6 86.7C83.7 86.7 83.7 86.6 83.8 86.5L85 85.1C85.1 85 85.1 84.9 85.1 84.8C85.1 84.7 85 84.6 84.9 84.5L85 84.3L85.5 84.7L85.6 84.8L85.7 84.9L85.9 85C86 85.1 86.1 85.2 86.2 85.3C86.3 85.4 86.4 85.5 86.4 85.5C86.5 85.6 86.5 85.7 86.5 85.8C86.5 85.9 86.5 86 86.5 86.1C86.5 86.2 86.4 86.3 86.3 86.4C86.2 86.5 86.2 86.5 86.1 86.6C86 86.6 85.9 86.7 85.8 86.7C85.79 86.7 85.77 86.7 85.76 86.7C85.92 86.63 86.03 86.54 86.1 86.4C86.3 86.2 86.3 86.1 86.2 85.9C86.1 85.7 86 85.6 85.8 85.5L85.7 85.5L84.9 86.4L85 86.5C85.18 86.59 85.28 86.68 85.46 86.78C85.48 86.84 85.5 86.91 85.5 87C85.5 87.1 85.5 87.3 85.4 87.6C85.4 87.8 85.4 87.9 85.4 88C85.4 88.1 85.4 88.2 85.4 88.2C85.4 88.3 85.5 88.3 85.5 88.4L85.7 88.8ZM85.76 86.7C85.68 86.74 85.6 86.77 85.5 86.8C85.48 86.79 85.47 86.78 85.46 86.78C85.43 86.71 85.4 86.65 85.4 86.6C85.49 86.69 85.65 86.7 85.76 86.7ZM116 86.9L114.9 87.8L114.8 87.6C114.9 87.5 115 87.5 115 87.4L115 87.3L114.9 87.2L114.6 87L113.9 87.6L114 87.8C114 87.9 114.1 88 114.1 88C114.2 88.1 114.2 88.1 114.3 88.1C114.4 88.1 114.4 88 114.5 88L114.6 88.2L113.8 88.9L113.7 88.7C113.8 88.6 113.8 88.6 113.8 88.5C113.8 88.4 113.8 88.4 113.8 88.3C113.8 88.2 113.8 88.1 113.7 87.9L112.9 85.6L113.1 85.5L115.3 86.7C115.5 86.8 115.6 86.8 115.6 86.9C115.7 86.9 115.7 86.9 115.8 86.9C115.9 86.9 115.9 86.9 116 86.8L116 86.9ZM114.3 86.9L113.3 86.4L113.7 87.4L114.3 86.9ZM117.6 82.8C117.8 83 118 83.2 118.1 83.4C118.2 83.6 118.2 83.9 118.2 84.2C118.1 84.5 118 84.8 117.8 85C117.6 85.2 117.4 85.4 117.2 85.5C117 85.6 116.8 85.7 116.6 85.7C116.4 85.7 116.2 85.7 116 85.6C115.8 85.5 115.7 85.4 115.5 85.3C115.3 85.1 115.1 84.9 115 84.7C114.9 84.5 114.9 84.2 114.9 83.9C115 83.6 115.1 83.3 115.3 83.1C115.5 82.9 115.7 82.7 115.9 82.6C116.1 82.5 116.3 82.4 116.5 82.5C116.7 82.5 116.9 82.5 117 82.6C117.4 82.6 117.5 82.7 117.6 82.8ZM117.2 83.3C117.1 83.2 116.9 83.1 116.8 83C116.7 82.9 116.5 82.9 116.4 82.9C116.3 82.9 116.1 82.9 116 82.9C115.9 82.9 115.7 83 115.6 83.2C115.4 83.4 115.4 83.6 115.4 83.8C115.4 84 115.5 84.2 115.6 84.3C115.7 84.5 115.8 84.6 116 84.7C116.1 84.8 116.2 84.9 116.3 84.9C116.4 85 116.5 85 116.7 85.1C116.8 85.1 117 85.1 117.2 85.1C117.4 85.1 117.5 85 117.6 84.8C117.7 84.6 117.8 84.5 117.8 84.3C117.8 84.1 117.8 84 117.7 83.8C117.6 83.7 117.6 83.5 117.5 83.5C117.4 83.5 117.3 83.4 117.2 83.3ZM24.9 84.7L19.5 84.3L22.8 86.4L23.2 85.8L23.9 86.3L22.7 88.3L22 87.8L22.3 87.3L18.4 84.9L18.1 85.4L17.4 84.9L18.5 83.2L22.8 83.6L20.2 82L19.9 82.5L19.2 82L20.4 80L21.1 80.5L20.8 81.1L25.4 84L24.9 84.7ZM106.9 88.8C107 88.8 107.1 88.8 107.1 88.8L106.9 88.8Z" />
		<path id="Layer" fill-rule="evenodd" class="shp0" d="M46.6 50.2C35.2 57.5 25.6 66.9 18.2 77.8L17.4 77.8C24.7 67 34.2 57.6 45.4 50.2L46.6 50.2ZM62.2 56.4C51.5 61.8 42.2 69.1 34.7 77.8L33.8 77.8C41.3 68.9 50.6 61.5 61.4 56L59.4 50.2L60.1 50.2L62.2 56.4ZM71.6 50.5C73 51 74.3 50.8 75.7 50.6C75.2 51.6 74.8 52.5 74.5 53.5C76.5 53.7 77.2 53.2 78.9 52.3C78.3 53.5 77.6 54.4 77.7 55.8C78.7 55.6 79.7 55.1 80.4 54.4L81.2 54.8C80.9 55.9 80.9 56.8 81 57.9C82.2 57.2 83.1 56.3 83.8 55.1L84.7 55.5C84.4 56.7 84.2 57.7 84.3 59C86.2 58.2 86.9 57.1 88.1 55.5C88.1 57.2 88 58.3 88.6 59.9C90.2 58.5 91.3 56.8 92.3 54.9L94.3 57.9C94.3 57.9 93.7 58.2 93.6 58.2C91.5 59.3 90.3 63.1 90 65.2L92.6 65C91.8 66.2 91.2 67 91 68.5L93 67.7C92.5 69.4 92.5 71.2 92.4 73L92.7 73C93.2 72.6 93.9 72.2 94.6 71.8L94.6 64.6L95.9 65.6L97.2 64.6L97.2 71.7C98.4 72.1 98.9 72.1 99.4 72.9L100.1 72.9C100.6 72.1 101.1 72.1 102.3 71.7L102.3 64.6L103.6 65.6L104.9 64.6L104.9 71.8C105.7 72.2 106.3 72.5 106.8 73L107.1 73C107.1 71.2 107 69.5 106.5 67.7L108.5 68.5C108.3 67 107.7 66.2 106.9 65L109.5 65.2C109.2 63 107.9 59 105.6 58L105.2 57.8L107.2 54.8C108.2 56.7 109.3 58.3 110.9 59.8C111.5 58.1 111.4 57.1 111.4 55.4C112.6 57 113.3 58.1 115.2 58.9C115.3 57.7 115.2 56.6 114.8 55.4L115.7 55C116.4 56.1 117.4 57.1 118.5 57.8C118.7 56.7 118.6 55.8 118.3 54.7L119.1 54.3C119.8 55 120.8 55.5 121.8 55.7C121.8 54.3 121.2 53.4 120.6 52.2C122.3 53.1 123 53.6 125 53.4C124.7 52.4 124.3 51.4 123.8 50.5C125.2 50.7 126.5 50.9 127.9 50.4L127.6 50.1L128.6 50.1L129.2 50.7C127.7 51.3 126.7 51.5 125 51.4C125.4 52.3 125.7 53.1 125.9 54C124.7 54.2 123.4 54.3 122.2 53.8C122.6 54.7 122.5 55.5 122.5 56.5C121.4 56.4 120.2 56 119.2 55.3C119.3 56 119.3 56.8 119.2 57.5C124.7 58.9 129.9 60.9 134.8 63.4L134.9 63.5L136.3 59.9L137.9 65.2L142.7 62.1L140.9 66.8C145.2 69.5 149.2 72.5 152.9 76C154.6 75.2 156.8 75.8 158.2 77.3C158.4 77.5 158.5 77.7 158.6 77.8L157.7 77.8C157.7 77.8 157.7 77.8 157.6 77.7C156.4 76.4 154.7 76 153.3 76.5L153.5 76.8L153.7 77.1C154.6 76.8 155.8 77 156.7 77.7L155.2 77.7C154.8 77.6 154.5 77.6 154.2 77.7L153.4 77.7C153.3 77.5 153.1 77.3 153 77.1C152.9 76.9 152.7 76.7 152.4 76.3C148.8 73 144.9 70 140.7 67.4L140.5 68.1C144.5 70.6 148.3 73.5 151.8 76.7L152 76.9C152.1 77.1 152.3 77.3 152.4 77.6C152.4 77.7 152.5 77.7 152.5 77.8L151.1 77.8C151.2 77.6 151.3 77.5 151.4 77.4C147.9 74.2 144.2 71.4 140.2 68.9L137.2 77C137.1 77.3 137 77.6 136.9 77.8L136.1 77.8C136.3 77.5 136.5 77.1 136.6 76.7L141.4 63.9L137.7 66.3L136.5 62.1L132.4 73.1C133.6 73.3 134.4 74 135.2 75C134.3 76.2 133.3 76.9 131.8 77L124.4 77C124.5 77.3 124.6 77.6 124.7 77.8L124 77.8C123.9 77.5 123.8 77.3 123.8 77C123.7 77.3 123.6 77.5 123.6 77.8L122.8 77.8C123.2 76.5 123.6 75.1 123.9 73.6C124.1 72.6 124.3 71.6 124.9 70.7L118.9 73.4C118.6 75 118.2 76.4 117.7 77.7L116.9 77.7C117 77.4 117.1 77.2 117.2 76.9L108.1 76.9C108.1 77.2 108 77.4 108 77.7L106.2 77.7L106.2 77C106 77.3 105.8 77.6 105.7 77.8L104.6 77.8L104.6 77.1C104.4 77.4 104.3 77.6 104.1 77.8L102.9 77.8L102.9 77L97 77L97 77.8L95.8 77.8C95.6 77.6 95.5 77.4 95.3 77.1L95.3 77.8L94.2 77.8C94 77.6 93.8 77.3 93.7 77L93.7 77.8L91.8 77.8C91.8 77.5 91.7 77.2 91.7 77L85.9 77C85.7 77.4 85.4 77.7 85 77.8L82.2 77.8C81.7 76.5 81.3 75 81 73.5L75 70.8C75.6 71.7 75.8 72.7 76 73.7C76.3 75.2 76.7 76.5 77.1 77.9L76.4 77.9C76.3 77.6 76.2 77.3 76.1 77L76.1 77.2L76 77.2C75.9 77.4 75.9 77.7 75.8 77.9L75 77.9C75.1 77.7 75.2 77.4 75.2 77.2L71.3 77.2C70.9 77.5 70.5 77.8 70 77.9L68.7 77.9C67.4 77.6 66.5 76.5 66.5 75.1C66.5 74.4 66.8 73.7 67.3 73.2L63.2 62.2L62 66.4L58.3 64L63.1 76.8C63.2 77.2 63.4 77.5 63.6 77.9L62.8 77.9C62.7 77.6 62.5 77.3 62.5 77.1L59.5 69C55.6 71.4 51.9 74.2 48.5 77.3C48.6 77.5 48.7 77.7 48.8 77.9L48 77.9C47.8 77.5 47.6 77.2 47.2 76.9C45.7 75.6 43.4 76 41.9 77.6C41.8 77.7 41.7 77.8 41.7 77.9L40.9 77.9C41 77.7 41.2 77.4 41.4 77.1C42.8 75.5 45 74.9 46.8 75.8C50.4 72.5 54.4 69.5 58.6 66.9L56.8 62.2L61.6 65.3L63.2 60L64.6 63.6C64.6 63.6 64.7 63.6 64.7 63.5C69.6 61 74.9 59 80.4 57.6C80.3 56.9 80.3 56.2 80.4 55.4C79.5 56.1 78.3 56.4 77.1 56.6C77 55.6 77 54.9 77.4 53.9C76.2 54.3 74.9 54.3 73.7 54.1C74 53.2 74.3 52.3 74.6 51.5C72.9 51.7 71.9 51.5 70.4 50.8L71 50.2L71.9 50.2L71.6 50.5ZM140.5 50.2L138.1 56.1C148.9 61.5 158.2 69 165.6 77.8L164.7 77.8C157.2 69.1 147.9 61.8 137.2 56.4L139.7 50.2L140.5 50.2ZM154.1 50.2C165.3 57.6 174.8 67 182.1 77.8L181.3 77.8C173.9 66.9 164.3 57.5 152.9 50.2L154.1 50.2ZM21.9 77.8L23.1 76.2L27.4 76.9L25 75.1L24.6 75.6L23.9 75.1L25.3 73.2L26 73.7L25.6 74.2L29.9 77.5L29.7 77.8L26.3 77.8L24 77.4L24.5 77.8L21.9 77.8ZM42.5 77.8C43.7 76.6 45.5 76.4 46.6 77.4C46.8 77.5 46.9 77.7 47 77.8L46 77.8C45.9 77.7 45.8 77.7 45.6 77.6C45.5 77.7 45.5 77.7 45.4 77.8L44.4 77.8C44.5 77.7 44.6 77.6 44.8 77.4C44.4 77.4 44 77.5 43.6 77.8L42.5 77.8ZM169.2 77.8L167.9 76.2L168.6 75.7L169 76.2L172.6 73.3L172.2 72.8L172.9 72.3L175.9 76.1L174.6 77.1L174 76.3L174.6 75.8L173.3 74.2L172.1 75.2L173.2 76.6L172.4 77.2L171.3 75.8L169.7 77.1L170.3 77.8L169.2 77.8ZM107.3 75.4C107.2 73.6 105.8 73.1 104.3 72.4L104.3 66.1L103.7 66.6L103.1 66.1L103.1 72.3C102.5 72.5 101.7 72.7 101.2 73L102.2 73C102.9 73.7 103.4 74.4 103.4 75.4L103.4 77.2C104 76.4 104.3 75.5 104.4 74.9L105.1 74.9L105.1 77.1C105.6 76.4 105.9 75.5 106.1 74.8L106.8 74.9L106.8 77.2C107.1 76.8 107.3 76.5 107.4 76.1C107.3 76 107.3 75.7 107.3 75.4ZM92.3 75.4C92.3 75.7 92.3 75.9 92.4 76.1C92.5 76.5 92.7 76.8 93 77.2L93 75L93.7 74.9C93.9 75.5 94.2 76.5 94.7 77.2L94.7 75L95.4 75C95.4 75.5 95.8 76.5 96.4 77.3L96.4 75.5C96.4 74.5 96.9 73.8 97.6 73.1L98.6 73.1C98 72.7 97.3 72.6 96.7 72.4L96.7 66.2L96.1 66.7L95.5 66.2L95.5 72.5C93.8 73.1 92.4 73.6 92.3 75.4ZM124.3 73.8C124.2 74.1 124.2 74.5 124.1 74.8L132.2 74.8L132.2 75.5L123.9 75.5C123.8 75.8 123.8 76.1 123.7 76.3L131.6 76.3C132.7 76.3 133.5 75.8 134.1 75.1C133.3 74.3 132.5 73.9 131.6 73.8L124.3 73.8ZM97 76.3L102.5 76.3L102.5 75.5L97 75.5L97 76.3ZM97.1 74.7L102.4 74.7C102.3 74.4 102.1 74 101.7 73.7L97.8 73.7C97.5 74.1 97.3 74.4 97.1 74.7ZM107.4 73.8C107.6 74.1 107.7 74.4 107.8 74.8L117.5 74.8C117.6 74.5 117.7 74.2 117.7 73.8L107.4 73.8ZM107.9 75.4C107.9 75.7 107.9 76 107.8 76.2L117.1 76.2C117.2 75.9 117.3 75.6 117.4 75.4L107.9 75.4ZM91.6 75.5L86 75.5L86 76.3L91.7 76.3C91.7 76.1 91.7 75.8 91.6 75.5ZM91.7 74.7C91.7 74.3 91.9 74 92.1 73.7L86.1 73.7L86.1 74.6L91.7 74.6L91.7 74.7ZM81.7 73.9C82 75.1 82.3 76.2 82.7 77.2L84.3 77.2C84.9 77.2 85.4 76.7 85.4 76.1L85.4 73.8C85.4 73.2 84.9 72.7 84.3 72.7L82.8 72.7C82.2 72.9 81.7 73.3 81.7 73.9ZM108.2 57.7C107.7 57.6 106.9 57.6 106.5 57.5L106.4 57.6C109 59 110.2 63.3 110.5 66L108.5 65.9C109.3 67.2 109.4 68.2 109.6 69.7L107.8 69C108 70.1 108.1 71.7 108.1 73.1L118.1 73.1L118.1 73L126.6 69.2L126.7 69.2C129.4 68.5 131.2 71 130.7 73.2L131.6 73.2L134.5 65.6L134.4 65.6C128.7 62.7 122.6 60.5 116.1 59.1C116.1 59.4 116 59.7 116 60.1C114.8 59.7 114 59.3 113.2 58.6C112.9 58.5 112.6 58.5 112.3 58.4C112.2 59.4 111.9 60.2 111.5 61.2C110 60 109 59 108.2 57.7ZM75 73C75.1 73.2 75.1 73.2 75 73C74.7 71.6 74.3 70.8 72.7 69.8C70.8 69.4 69.6 70.8 69.5 72.2C70.2 72.2 70.8 72.5 71.3 73L75 73ZM69.3 72.9C68.1 72.9 67.2 73.9 67.2 75C67.2 76.2 68.2 77.1 69.3 77.1C70.5 77.1 71.4 76.1 71.4 75C71.5 73.8 70.5 72.9 69.3 72.9ZM93.1 57.5C92.6 57.5 91.9 57.6 91.4 57.7C90.5 59 89.6 60 88.2 61.1C87.8 60.1 87.5 59.3 87.4 58.3C87.1 58.4 86.8 58.4 86.5 58.5C85.7 59.2 84.8 59.6 83.7 60C83.6 59.7 83.6 59.3 83.6 59C77.2 60.4 71 62.6 65.3 65.5L65.2 65.5L67.9 72.6C68.2 72.4 68.5 72.3 68.9 72.2C68.9 71.8 69 71.4 69.1 71C69.7 69.5 71.4 68.6 73 69.1L73.1 69.1L81.5 72.8C81.7 72.5 82 72.3 82.4 72.1L80.6 60.2L81.2 60L83.6 63.9L86 60L86.6 60.2L84.8 72.1C85.3 72.2 85.7 72.5 85.9 73L91.6 73C91.6 71.6 91.7 70 91.9 68.9L90.1 69.6C90.2 68.1 90.4 67.1 91.2 65.8L89.2 65.9C89.5 63.2 90.7 58.9 93.3 57.5L93.1 57.5ZM83.6 56.8C83.6 56.7 83.6 56.6 83.7 56.5C83.6 56.6 83.5 56.8 83.4 56.9L83.6 56.8ZM58.7 67.5C54.6 70 50.8 72.9 47.3 76.1C47.4 76.2 47.4 76.2 47.5 76.3C47.6 76.4 47.7 76.5 47.8 76.6C51.2 73.5 55 70.6 59 68.2L58.7 67.5ZM64.9 64.8C64.9 64.8 65 64.8 65 64.7C70.8 61.8 77 59.6 83.5 58.2C83.5 58 83.5 57.7 83.5 57.5C83.1 57.6 82.7 57.7 82.3 57.8C81.7 58.2 81.1 58.6 80.4 58.9C80.4 58.7 80.3 58.5 80.3 58.3C74.9 59.7 69.7 61.7 64.8 64.1L64.7 64.1L64.9 64.8ZM91.8 56.9L92.6 56.8L92.2 56.2C92.1 56.5 92 56.7 91.8 56.9ZM84.1 72.1L85.6 61.8L83.5 65.2L81.4 61.8L82.9 72.1L84.1 72.1ZM115.9 56.8L116.2 56.9C116.1 56.8 116 56.6 115.9 56.5C115.9 56.6 115.9 56.7 115.9 56.8ZM116 58.3C122.5 59.7 128.7 61.9 134.5 64.8L134.6 64.9L134.9 64.2L134.8 64.2C129.9 61.7 124.7 59.8 119.3 58.4C119.3 58.6 119.2 58.8 119.2 59C118.5 58.7 117.9 58.3 117.3 57.9C116.9 57.8 116.5 57.7 116.1 57.6C116 57.8 116 58 116 58.3ZM129.9 73.1C130.3 71.4 129.1 69.3 126.8 69.8C125.1 70.8 124.7 71.6 124.4 73.1L129.9 73.1ZM106.9 56.9L107.7 57C107.6 56.8 107.4 56.6 107.3 56.3L106.9 56.9ZM167.4 68.8L166.7 68.1L168 66.9L171.2 70.3L169.9 71.5L169.2 70.8L169.9 70.2L169.4 69.6L166.1 72.7L166.6 73.3L166 73.9L164.2 72L164.8 71.4L165.3 72L168.6 68.9L168.1 68.3L167.4 68.8ZM160.3 68.1L160.9 67.5L161.3 67.9L161.6 66.2L160 66.6L160.4 67L159.8 67.6L158.1 66.1L158.7 65.5L159.1 65.9L161.8 65.3L162.3 62.6L161.9 62.2L162.5 61.6L164.2 63.2L163.6 63.8L163.2 63.4L162.9 65L164.5 64.7L164.1 64.3L164.7 63.7L166.4 65.3L165.8 65.9L165.4 65.5L162.8 66.1L162.3 68.9L162.7 69.3L162.1 69.9L160.3 68.1ZM156.6 64.8L154.7 63.3L155.2 62.6L155.7 63L158.6 59.4L158.1 59L158.6 58.3L160.5 59.8L160 60.5L159.5 60.1L156.6 63.7L157.1 64.1L156.6 64.8ZM150.3 59.1L151.5 54.7L149.1 58.1L149.7 58.5L149.2 59.2L147.3 57.8L147.8 57.1L148.3 57.5L150.9 53.8L150.4 53.4L150.9 52.7L152.9 54.1L151.8 57.7L154.9 55.5L156.8 56.8L156.3 57.5L155.8 57.1L153.2 60.8L153.7 61.2L153.2 61.9L151.3 60.5L151.8 59.8L152.4 60.2L154.8 56.8L151.1 59.4L150.3 59.1ZM51 58.5L47 61.3L46.5 60.6L47.1 60.2L44.5 56.5L44 56.9L43.5 56.2L47.5 53.4L48.5 54.8L47.7 55.4L47.2 54.7L45.5 55.9L46.4 57.2L47.8 56.2L48.4 57L47 58L48.1 59.6L49.8 58.4L49.2 57.6L50 57L51 58.5ZM37.5 61.8L37 61.1L38.9 59.6L39.4 60.3L38.9 60.7L40.7 62.9C41.2 63.5 41.7 64.3 42.7 63.5C43.6 62.8 42.9 62.1 42.5 61.5L40.7 59.3L40.2 59.7L39.7 59L41.6 57.5L42.1 58.2L41.6 58.6L43.7 61.2C44.7 62.5 44.2 63.7 43.4 64.3C42.4 65.1 41.1 65.2 40.3 64.1L38.1 61.4L37.5 61.8ZM38.6 69.8L37.5 69.4C37.4 69.6 37.3 69.7 37.1 69.9C35.4 71.5 33.3 70.8 32.4 69.8C31.2 68.5 31.2 66.5 32.5 65.2C33.9 63.9 35.9 64 37.1 65.2C38 66.2 38.2 67.4 37.9 68.5L38.2 68.6L38.8 68L39.5 68.7L38.6 69.8ZM36.5 69.1L35.8 68.9L36.1 68L37 68.3C37.2 67.6 37.1 66.8 36.4 66.1C35.6 65.2 34.2 65.2 33.3 66C32.3 67 32.4 68.2 33.2 69.1C34.2 70.1 35.4 70.1 36.3 69.3C36.4 69.2 36.4 69.1 36.5 69.1ZM33.3 73.7L31.7 75.5L31.1 74.9L31.5 74.4L28.1 71.3L27.7 71.8L27.1 71.2L28.7 69.4L29.3 70L28.9 70.5L32.3 73.6L32.7 73.1L33.3 73.7Z" />
		<path id="Layer" fill-rule="evenodd" class="shp0" d="M45.3 50.2C49.1 47.7 53.1 45.4 57.4 43.4L57.7 43.2L60.1 50.2L59.4 50.2L57.4 44.2C53.7 46 50.1 48 46.7 50.2L45.3 50.2ZM70.8 50.2L72.1 48.9C70.8 48.2 68.4 46.9 67.4 46.2C66.4 45.4 66.2 44.6 65.9 43.5L70.5 45.1L69.8 44.6C68.4 43.5 66.8 42.3 66.1 41.5C65.3 40.6 65.1 39.8 65.1 38.6L68.4 40.2L68.1 39.9C66.8 38.8 65.4 37.4 64.8 36.6C64.1 35.6 64 34.8 64.1 33.6L67.7 35.7C66.1 34 63.1 32.1 63.6 29.3L63.7 28.8L67.3 31.4C65.8 29.5 62.7 27.1 63.7 24.3L63.9 23.8L67 26.4C65.4 24.3 63.5 23.3 64.6 20.1L68.3 23.3C66.7 21.3 64.9 20.3 66 17.2L69.7 20.4C67.3 17.5 66.5 17.3 67.4 13.3L75.2 21.8C75.3 21.4 75.4 21 75.5 20.6L82.7 29.1L83.1 27.9L83.5 28.4C84.4 29.5 87.9 34 88.4 34.7C89 35.5 90.9 39.2 89.2 41.6C88.5 42.6 87.5 43.8 86.4 44.4L86.3 44.4C90.3 49.8 98.1 38.1 92.6 31.9C91.1 32.2 88.9 31.4 87.9 30.6C87.4 30.6 87.1 30.9 86.7 31.1C86.2 28.8 87.5 28.3 89.4 28.1C90.3 25.7 93.7 27.7 95.4 27.8L95.9 27.8C95.8 28.2 95.7 28.5 95.4 28.8C98.2 29.8 99.6 32.4 99.9 35.1C100.2 32.4 101.5 29.8 104.3 28.8C104 28.5 103.9 28.1 103.8 27.8L104.3 27.8C106.1 27.7 109.5 25.8 110.3 28.1C112.3 28.3 113.6 28.8 113 31.1C112.6 30.9 112.3 30.6 111.8 30.6C110.8 31.4 108.5 32.2 107.1 31.9C101.6 38.1 109.3 49.8 113.4 44.4L113.3 44.4C112.2 43.7 111.2 42.6 110.5 41.6C108.9 39.2 110.7 35.5 111.3 34.7C111.8 34 115.3 29.5 116.2 28.4L116.6 27.9L117 29.1L124.2 20.6C124.3 21 124.4 21.4 124.5 21.8L132.3 13.3C133 16.4 132.7 17.2 130.9 19.7L133.7 17.3C134.5 19.7 133.7 20.8 132.3 22.6L135.1 20.2C136 22.7 135 23.9 133.5 25.8L135.7 23.9C136.1 25 136.2 25.8 135.8 26.9C135.4 27.9 134.1 29.5 133 30.9L132.9 31L135.9 28.9C136.1 30 136.2 30.9 135.6 31.9C135 33 133.3 34.7 132.5 35.5L135.5 33.7C135.6 34.8 135.5 35.7 134.8 36.7C134.2 37.5 132.7 38.9 131.5 40L131.2 40.3L134.5 38.7C134.4 39.8 134.3 40.7 133.5 41.6C132.8 42.3 131.2 43.6 129.8 44.7L129.1 45.2L133.7 43.6C133.5 44.7 133.2 45.5 132.2 46.3C131.3 47 128.9 48.3 127.5 49L128.8 50.3L127.8 50.3L126.3 48.8C127.7 48.1 130.6 46.7 131.8 45.7C132.2 45.4 132.4 45.1 132.7 44.7L127.1 46.7L126.8 46.1C126.8 46.1 131.8 42.6 133.1 41.2C133.4 40.9 133.7 40.4 133.8 40L129.2 42.2L128.8 41.6C128.8 41.6 133.2 37.9 134.4 36.3C134.7 35.9 134.9 35.4 135 35L130.4 37.7L130 37.1C130 37.1 134.2 33.2 135.1 31.6C135.3 31.2 135.5 30.7 135.5 30.2L130.9 33.5L130.4 33C130.4 33 134.5 28.6 135.3 26.8C135.5 26.3 135.6 25.8 135.5 25.3L131.2 28.9L130.7 28.4C130.7 28.4 134.1 24.6 134.7 23.1C134.9 22.6 135 22.1 134.9 21.6L129.8 26L129.3 25.5C129.3 25.5 132.7 21.7 133.3 20.2C133.5 19.7 133.6 19.2 133.5 18.7L128.4 23.1L127.9 22.6C127.9 22.6 131.3 18.8 131.9 17.3C132.2 16.6 132.2 15.8 132.1 15L124.2 23.6C124.2 23.2 124.1 22.8 124.1 22.4L117 30.8L116.6 29.6C115.2 31.2 112.5 34.8 112.1 35.4C111.6 36.1 109.9 39.5 111.3 41.5C112 42.5 112.9 43.5 113.9 44.1C114 44.2 114.7 44.5 114.7 44.5L114.5 44.8C109.9 51.9 100.3 38.6 107.2 31.5C108.7 32 110.8 31.2 111.9 30.3C112.2 30.3 112.5 30.3 112.8 30.4C112.7 29.3 110.8 29.2 110.1 29.1L110 28.9C109.6 27.1 106.5 28.6 105.2 28.8C105.5 29.1 105.9 29.3 106.2 29.6C103.5 30.2 101.5 31.9 101 34.7C100.7 36.3 100.5 37.5 100.4 38.9L99.9 38.9C99.8 37.5 99.7 36.2 99.3 34.8C98.8 32 96.8 30.2 94.1 29.6C94.4 29.4 94.8 29.1 95.1 28.8C93.88 28.61 91.08 27.28 90.41 28.6L90.3 28.6C90.2 28.7 90.2 28.9 90.2 29C90.2 29.03 90.2 29.06 90.2 29.09L90.2 29.1C89.4 29.2 87.5 29.2 87.5 30.4C87.8 30.3 88.1 30.3 88.4 30.3C89.5 31.2 91.6 32 93.1 31.5C100 38.6 90.3 51.9 85.8 44.8L85.6 44.5C85.6 44.5 86.2 44.2 86.4 44.1C87.4 43.5 88.3 42.4 89 41.5C90.4 39.5 88.7 36.1 88.2 35.4C87.7 34.8 85.1 31.2 83.7 29.6L83.3 30.8L76.2 22.4C76.1 22.8 76.1 23.2 76.1 23.6L68.2 15C67.9 17.1 68.6 18 70.3 19.8C71.1 20.7 71.8 21.7 72.4 22.7L71.9 23.2L66.8 18.8C66.6 20.4 67.9 21.7 68.9 22.8C69.7 23.7 70.4 24.7 71 25.7L70.5 26.2L65.4 21.8C65.2 23.4 66.5 24.7 67.5 25.8C68.3 26.7 69 27.7 69.6 28.7L69.1 29.2L64.8 25.6C64.6 27.2 66 28.7 67.2 30C68.2 31 69.1 32.2 69.9 33.3L69.4 33.8L64.8 30.5C64.8 32.2 66.4 33.5 67.6 34.5C68.6 35.4 69.5 36.4 70.4 37.4L70 37.9L65.4 35.2C65.5 35.7 65.7 36.1 66 36.5C67.1 38.1 71.6 41.8 71.6 41.8L71.2 42.4L66.6 40.2C66.7 40.6 67 41.1 67.3 41.4C68.6 42.8 73.6 46.3 73.6 46.3L73.3 46.9L67.7 44.9C67.9 45.3 68.2 45.6 68.6 45.9C69.8 46.8 72.7 48.3 74.1 49L72.6 50.5L70.8 50.5L70.8 50.2ZM90.41 28.6L91.9 28.6C92 28.7 92 28.8 92 29C92 29.5 91.6 29.9 91.1 29.9C90.63 29.9 90.25 29.55 90.2 29.09L90.3 28.9C90.32 28.79 90.36 28.69 90.41 28.6ZM139.7 50.2L142.4 43.6C146.5 45.6 150.3 47.8 154 50.2L152.8 50.2C149.6 48.1 146.2 46.2 142.7 44.5L140.4 50.2L139.7 50.2ZM105.2 24.2C105.2 24.2 105.2 24.3 105.2 24.2C104.7 24.2 104.3 24.5 104.2 25L104.2 25.1C104.1 25.1 103.9 25.2 103.8 25.1C103.5 25 103.3 24.7 103.4 24.3C103.5 24 103.7 23.9 104 23.9L104 23.8C104.1 23.5 104.4 23.3 104.8 23.4C105.2 23.5 105.3 23.9 105.2 24.2ZM101.1 23.8C101.1 23.5 101.4 23.3 101.6 23.3L101.6 23.2C101.7 22.9 102 22.7 102.3 22.7C102.6 22.8 102.8 23.1 102.8 23.4L102.8 23.5C103 23.6 103.2 23.9 103.1 24.2C103 24.5 102.7 24.7 102.4 24.7C102.2 24.7 102.1 24.6 102 24.4C101.9 24.5 101.7 24.5 101.5 24.5C101.3 24.4 101.1 24.1 101.1 23.8ZM94.3 24.2C94.2 23.9 94.4 23.5 94.7 23.4C95 23.3 95.3 23.5 95.5 23.8L95.5 23.9C95.8 23.9 96 24 96.1 24.3C96.2 24.6 96 25 95.7 25.1C95.6 25.1 95.4 25.1 95.3 25.1L95.3 25C95.2 24.5 94.8 24.2 94.3 24.2ZM98.4 23.8C98.5 24.1 98.2 24.4 97.9 24.5C97.7 24.5 97.6 24.5 97.4 24.4C97.3 24.5 97.2 24.6 97 24.7C96.7 24.8 96.4 24.5 96.3 24.2C96.3 23.9 96.4 23.7 96.6 23.5L96.6 23.4C96.5 23.1 96.8 22.8 97.1 22.7C97.4 22.6 97.7 22.9 97.8 23.2L97.8 23.3C98.1 23.3 98.3 23.5 98.4 23.8ZM98.7 23.7C98.7 23.4 98.9 23.2 99.1 23.1L99.1 23C99.1 22.7 99.4 22.4 99.7 22.4C100 22.4 100.3 22.7 100.3 23L100.3 23.1C100.6 23.2 100.7 23.4 100.7 23.7C100.7 24 100.4 24.3 100.1 24.3C99.9 24.3 99.8 24.2 99.7 24.1C99.6 24.2 99.4 24.3 99.3 24.3C99 24.3 98.7 24.1 98.7 23.7ZM97.6 20.9C96.6 21.5 95.8 22.5 95.5 23.7C95.4 23.4 95.1 23.3 95 23.2C95.6 21.3 97.3 19.9 99.3 19.7C99 19.5 98.9 19.3 98.9 18.9C98.9 18.5 99.1 18.2 99.4 18.1L99.4 13.4L100 13.4L100 18.1C100.3 18.2 100.6 18.6 100.6 18.9C100.6 19.2 100.4 19.5 100.2 19.7C102.2 19.9 103.8 21.3 104.5 23.2C104.3 23.3 104.1 23.4 104 23.7C103.7 22.5 102.9 21.5 101.9 20.9C102.2 21.4 102.5 21.9 102.7 22.6C102.6 22.5 102.5 22.5 102.4 22.5C102.3 22.5 102.1 22.5 102 22.6C101.6 21.3 100.9 20.6 100.1 20.4L100.1 22.3C100 22.2 99.9 22.2 99.8 22.2C99.7 22.2 99.6 22.2 99.5 22.3L99.5 20.4C98.8 20.6 98.1 21.3 97.7 22.6C97.6 22.5 97.4 22.5 97.3 22.5C97.2 22.5 97.1 22.6 97 22.6C97.1 21.9 97.3 21.3 97.6 20.9ZM99.2 10.5C99.2 10.8 99.1 11 99 11.3C98.9 11.5 98.7 11.7 98.5 11.9C98.3 12.1 98.1 12.2 97.8 12.3C97.5 12.4 97.3 12.4 97 12.4C96.7 12.4 96.5 12.4 96.3 12.3C96.1 12.2 95.9 12.1 95.8 12C95.7 11.9 95.6 11.7 95.6 11.6C95.6 11.5 95.6 11.4 95.7 11.3C95.8 11.2 95.9 11.2 96 11.2C96.1 11.2 96.2 11.2 96.3 11.3C96.4 11.4 96.4 11.5 96.5 11.7C96.6 11.8 96.6 11.9 96.7 12C96.8 12.1 96.9 12.1 97 12.1C97.4 12.1 97.7 12 97.8 11.7C97.9 11.4 98 11.1 98 10.8C98 10.4 98 10.1 97.9 9.9C97.8 9.7 97.7 9.6 97.5 9.6C97.4 9.6 97.2 9.7 97.1 9.8C96.9 9.9 96.8 10 96.8 10C96.7 10 96.7 10 96.7 9.9L96.6 9.8C96.6 9.7 96.6 9.7 96.7 9.6C96.7 9.6 96.8 9.5 96.9 9.5C97.2 9.3 97.5 9.1 97.6 9C97.7 8.9 97.9 8.7 97.9 8.6C98 8.5 98 8.3 98 8.1C98 7.9 97.9 7.7 97.8 7.6C97.7 7.5 97.5 7.4 97.3 7.4C97.2 7.4 97.1 7.4 96.9 7.5C96.8 7.6 96.7 7.6 96.6 7.7C96.5 7.8 96.5 7.9 96.5 8C96.5 8.1 96.5 8.3 96.6 8.4C96.6 8.5 96.7 8.5 96.7 8.5L96.6 8.6L96.3 8.7C96.2 8.7 96.2 8.8 96.1 8.8C96 8.8 96 8.7 95.9 8.6C95.8 8.5 95.8 8.3 95.8 8.2C95.8 8.1 95.9 7.9 96 7.7C96.1 7.5 96.3 7.4 96.5 7.2C96.8 7.1 97.1 7 97.6 7C97.9 7 98.1 7 98.3 7.1C98.5 7.2 98.7 7.3 98.8 7.4C98.9 7.5 99 7.7 99 7.9C99 8.1 99 8.2 98.9 8.3C98.8 8.4 98.7 8.6 98.6 8.7C98.5 8.8 98.4 8.9 98.3 9C98.2 9.1 98.1 9.1 97.9 9.2C98.3 9.2 98.6 9.3 98.8 9.6C98.9 9.7 99 9.8 99 10C99.2 10.1 99.2 10.3 99.2 10.5ZM95.7 17.9L97.7 13.3L98.4 13.3L96.3 18.2L95.7 17.9ZM97.5 13.4L94.6 17.6L94 17.2L96.7 13.3L97.5 13.4ZM96.3 13.4L92.9 16.8L92.4 16.3L95.3 13.4L96.3 13.4ZM94.8 13.4L91.5 15.7L91.1 15.1L93.6 13.4L94.8 13.4ZM92.5 13.4L90.4 14.4L90.1 13.8L90.9 13.4L92.5 13.4ZM90.5 12.7L89.6 13L89.4 12.4L91.4 11.8L90.5 12.7ZM91.9 11L89 11.4L88.9 10.7L92.6 10.2L91.9 11ZM92.9 9.8L88.8 9.8L88.8 9.1L93.5 9.1L92.9 9.8ZM93.7 9L88.9 8.3L89 7.6L94.2 8.4L93.7 9ZM94.3 8.2L89.3 6.7L89.5 6.1L94.8 7.7L94.3 8.2ZM94.9 7.6L90.1 5.3L90.4 4.7L95.4 7.1L94.9 7.6ZM95.4 6.9L91.1 3.9L91.5 3.3L95.8 6.3L95.4 6.9ZM96 6.3L92.5 2.8L93 2.3L96.5 5.8L96 6.3ZM96.6 5.6L94 1.8L94.6 1.4L97.1 5L96.6 5.6ZM97.3 4.7L95.7 1L96.3 0.7L97.8 4.1L97.3 4.7ZM98.2 3.7L97.5 0.6L98.2 0.5L98.8 3.1L98.2 3.7ZM99.4 2.3L99.4 0.4L100.1 0.4L100.1 2.3L99.8 1.9L99.4 2.3ZM100.8 3.1L101.4 0.5L102.1 0.6L101.4 3.7L100.8 3.1ZM101.7 4.2L103.2 0.8L103.8 1.1L102.2 4.8L101.7 4.2ZM102.4 5L104.9 1.4L105.5 1.8L102.9 5.6L102.4 5ZM103 5.7L106.5 2.2L107 2.7L103.5 6.2L103 5.7ZM103.6 6.4L107.9 3.4L108.3 4L104 7L103.6 6.4ZM104.1 7L109.1 4.6L109.4 5.2L104.6 7.5L104.1 7ZM104.7 7.7L110 6.1L110.2 6.7L105.2 8.2L104.7 7.7ZM105.3 8.3L110.5 7.5L110.6 8.2L105.8 8.9L105.3 8.3ZM106 9.2L110.7 9.2L110.7 9.9L106.6 9.9L106 9.2ZM106.9 10.2L110.6 10.7L110.5 11.4L107.6 11L106.9 10.2ZM108.2 11.7L110.2 12.3L110 12.9L109.1 12.6L108.2 11.7ZM108.6 13.4L109.4 13.8L109.1 14.4L107 13.4L108.6 13.4ZM105.9 13.4L108.4 15.1L108 15.7L104.7 13.4L105.9 13.4ZM104.1 13.4L107 16.3L106.5 16.8L103.1 13.4L104.1 13.4ZM102.8 13.4L105.5 17.3L104.9 17.7L102 13.5L102.8 13.4ZM101.8 13.4L103.8 18L103.2 18.3L101.1 13.4L101.8 13.4ZM100.9 13.4L102 18.5L101.3 18.6L100.2 13.4L100.9 13.4ZM99.3 13.4L98.2 18.6L97.5 18.5L98.6 13.4L99.3 13.4ZM103.3 10.5C103.3 10.8 103.2 11 103.1 11.3C103 11.5 102.8 11.7 102.6 11.9C102.4 12.1 102.2 12.2 101.9 12.3C101.6 12.4 101.4 12.4 101.1 12.4C100.8 12.4 100.6 12.4 100.4 12.3C100.2 12.2 100 12.1 99.9 12C99.8 11.9 99.7 11.7 99.7 11.6C99.7 11.5 99.7 11.4 99.8 11.3C99.9 11.2 100 11.2 100.1 11.2C100.2 11.2 100.3 11.2 100.4 11.3C100.5 11.4 100.5 11.5 100.6 11.7C100.7 11.8 100.7 11.9 100.8 12C100.9 12.1 101 12.1 101.1 12.1C101.5 12.1 101.8 12 101.9 11.7C102 11.4 102.1 11.1 102.1 10.8C102.1 10.4 102.1 10.1 102 9.9C101.9 9.7 101.8 9.6 101.6 9.6C101.5 9.6 101.3 9.7 101.2 9.8C101 9.9 100.9 10 100.9 10C100.8 10 100.8 10 100.8 9.9L100.7 9.8C100.7 9.7 100.7 9.7 100.8 9.6C100.8 9.6 100.9 9.5 101 9.5C101.3 9.3 101.6 9.1 101.7 9C101.8 8.9 102 8.7 102 8.6C102.1 8.5 102.1 8.3 102.1 8.1C102.1 7.9 102 7.7 101.9 7.6C101.8 7.5 101.6 7.4 101.4 7.4C101.3 7.4 101.2 7.4 101 7.5C100.9 7.6 100.8 7.6 100.7 7.7C100.6 7.8 100.6 7.9 100.6 8C100.6 8.1 100.6 8.3 100.7 8.4C100.7 8.5 100.8 8.5 100.8 8.5L100.7 8.6L100.4 8.7C100.3 8.7 100.3 8.8 100.2 8.8C100.1 8.8 100.1 8.7 100 8.6C99.9 8.5 99.9 8.3 99.9 8.2C99.9 8.1 100 7.9 100 7.7C100.1 7.5 100.3 7.4 100.5 7.2C100.8 7.1 101.1 7 101.6 7C101.9 7 102.1 7 102.3 7.1C102.5 7.2 102.7 7.3 102.8 7.4C102.9 7.5 103 7.7 103 7.9C103 8.1 103 8.2 102.9 8.3C102.8 8.4 102.7 8.6 102.6 8.7C102.5 8.8 102.4 8.9 102.3 9C102.2 9.1 102.1 9.1 101.9 9.2C102.3 9.2 102.6 9.3 102.8 9.6C102.9 9.7 103 9.8 103 10C103.3 10.1 103.3 10.3 103.3 10.5ZM95.4 25.5C96.7 24.9 98.2 24.6 99.8 24.6C101.4 24.6 102.9 24.9 104.2 25.5L103.9 27L95.7 27L95.4 25.5ZM107.4 29C107.4 28.9 107.4 28.7 107.5 28.6L109.1 28.6C109.2 28.7 109.2 28.9 109.2 29C109.2 29.5 108.8 29.9 108.3 29.9C107.9 29.9 107.4 29.5 107.4 29Z" />
		<g id="Layer">
			<path id="Layer" class="shp0" d="M149.1 133.5L149.1 133.9L148.6 133.9L148.5 133.9C148.4 133.9 148.3 134 148.3 134.1C148.3 134.2 148.3 134.4 148.3 134.5L148.3 137.2C148.3 137.5 148.3 137.9 148.2 138.2C148.1 138.5 147.9 138.8 147.7 139C147.2 139.4 146.6 139.6 145.9 139.6C145.4 139.6 144.9 139.5 144.5 139.2C144.1 138.9 143.9 138.5 143.9 137.9C143.9 137.3 144.3 136.7 144.9 136.7C145.1 136.7 145.4 136.8 145.5 136.9C145.6 137 145.7 137.2 145.7 137.4C145.7 137.8 145.5 138.2 145.1 138.2L144.9 138.2L144.7 138.2L144.6 138.3C144.6 138.5 144.8 138.7 144.9 138.8C145.1 138.9 145.3 139 145.5 139C146 139 146.5 138.8 146.7 138.3C146.9 137.8 146.8 137.4 146.8 136.9L146.8 134.1C146.8 133.9 146.8 133.9 146.6 133.8C146.5 133.8 146.4 133.8 146.4 133.8L145.9 133.8L145.9 133.4L149.1 133.4L149.1 133.5Z" />
		</g>
		<path id="Layer" fill-rule="evenodd" class="shp0" d="M56.3 137.9C56.3 138.4 56.1 138.8 55.7 139.1C55.3 139.4 54.9 139.4 54.5 139.5C54.4 139.5 54.2 139.5 54.1 139.5C53.8 139.5 50.6 139.5 50.3 139.5L50.3 139.1C50.4 139.1 51 139.1 51.1 138.9C51.1 138.8 51.1 134.5 51.1 134.4C51.1 134.3 51.1 134.3 51.1 134.2L51 134.1C51 134 50.9 134 50.9 134C50.7 134 50.5 134 50.3 134L50.3 133.6L53.8 133.6C54.4 133.6 55.1 133.7 55.5 134.1C55.8 134.4 56 134.7 56 135.1C56 136.1 55.1 136.4 54.3 136.5C55.2 136.6 56.3 137 56.3 137.9ZM52.6 134.7L52.6 136.2C53 136.2 53.5 136.3 53.9 136.1C54.4 135.9 54.5 135.5 54.5 135C54.5 134.7 54.4 134.4 54.2 134.2C54 134 53.7 134 53.4 134C53.2 134 52.8 134 52.7 134.2C52.7 134.4 52.7 134.6 52.6 134.7ZM54.8 137.9C54.8 137.5 54.7 137.1 54.4 136.9C54.1 136.7 53.7 136.7 53.4 136.7L52.7 136.7L52.7 138.6C52.7 138.7 52.7 138.9 52.8 139C52.8 139.1 53.1 139.1 53.2 139.1C53.6 139.1 54 139.1 54.3 138.9C54.6 138.7 54.7 138.3 54.8 137.9Z" />
	</g>
</svg>